            <svg xmlns="http://www.w3.org/2000/svg" width="1023" height="223" viewBox="0 0 1023 223" fill="none">
                <rect width="222.774" height="222.786" fill="white" />
                <path d="M326.372 140.752H434.922C439.569 140.752 442.228 138.258 442.228 134.161C442.228 130.063 439.569 127.569 434.922 127.569H326.372V140.752ZM453.159 170.578H273.893V54.437H489.675V84.3182H326.372V97.6H453.159C477.558 97.6 494.652 112.53 494.652 134.117C494.652 155.704 477.558 170.578 453.159 170.578ZM685.068 127.426H569.717V97.6H685.068C681.256 90.6241 673.95 84.3182 660.668 84.3182H563.741C559.094 84.3182 556.436 86.812 556.436 90.9097V94.2054H503.979V90.9097C503.979 69.3337 524.401 52.7343 555.436 52.7343H683.244C715.278 52.7343 741.337 80.4513 741.337 112.486C741.337 144.52 715.278 172.248 683.244 172.248H555.436C524.401 172.248 503.979 155.649 503.979 134.073V130.777H556.436V134.073C556.436 138.214 559.094 140.664 563.741 140.664H660.668C673.95 140.752 681.212 134.446 685.068 127.47V127.426ZM751.125 170.578V54.437H821.17L885.733 134.117L950.296 54.437H1023V170.578H970.554V102.467L915.274 170.578H856.192L803.571 105.762V170.578H751.125Z" fill="#1D1D1D" />
                <path fill-rule="evenodd" clip-rule="evenodd" d="M177.678 0C171.687 21.1085 159.81 40.075 143.436 54.6812H179.829V84.0524H43.7788V54.6812H66.4781C83.8002 54.6826 100.721 49.4669 115.037 39.7135C129.352 29.9601 140.398 16.1213 146.735 0H0V222.786H46.5951C52.7646 202.502 64.398 184.308 80.2209 170.196H43.7788V140.825H179.829V170.196H157.13C140.193 170.195 123.632 175.183 109.511 184.535C95.3913 193.888 84.338 207.191 77.731 222.786H222.774V0H177.678ZM179.841 127.118H43.7788V97.759H179.841V127.118Z" fill="#319966" />
            </svg>