<svg version="1.1" id="svg-logo" xmlns="http://www.w3.org/2000/svg" x="0px"
     y="0px" viewBox="0 0 55 33" style="enable-background:new 0 0 55 33;" xml:space="preserve">
				<g>
					<path class="logo-color"
                          d="M37.7,8V0.3h-4.1V8c0,3.9,1.9,5.7,5.8,5.7h6.2V0.3h-4.1v9.8h-1.8C38.4,10.1,37.7,9.7,37.7,8z"></path>
                    <path class="logo-color"
                          d="M22.5,20.7v7.7h4.1v-7.7c0-3.9-1.9-5.7-5.8-5.7h-6.2v13.4h4.1v-9.8h1.8C21.8,18.6,22.5,19.1,22.5,20.7z"></path>
                    <path class="logo-color" d="M28,5.1h-3.9V0.3H20v13.4h4.2V8.6H28v5.1h4.2V0.3H28V5.1z"></path>
                    <path class="logo-color" d="M48.3,14.7c-4.6,0-6.7,3-6.7,7c0,4.1,2.1,7,6.7,7c4.6,0,6.7-3,6.7-7C55,17.7,52.9,14.7,48.3,14.7z M48.3,25.4
						c-1.9,0-2.5-1.5-2.5-3.6c0-2.1,0.7-3.6,2.5-3.6c1.9,0,2.5,1.5,2.5,3.6C50.8,23.8,50.2,25.4,48.3,25.4z"></path>
                    <path class="logo-color" d="M12.2,0C8.4,0,6.4,2.1,5.9,5.1H4.2V0.3L0,0.3v13.5h4.2V8.6h1.7c0.5,3.2,2.5,5.4,6.4,5.4c4.6,0,6.7-3,6.7-7
						C18.9,3,16.8,0,12.2,0z M12.2,10.7c-1.9,0-2.5-1.5-2.5-3.6c0-2.1,0.6-3.6,2.5-3.6c1.9,0,2.5,1.5,2.5,3.6
						C14.7,9.1,14.1,10.6,12.2,10.7z"></path>
                    <path class="logo-color" d="M32.2,28.5h1.6c4.5,0,7-2.2,7-6.7c0-4.5-2.5-6.7-7-6.7H28v18h4.1V28.5z M32.2,24.8v-6.2h1.4c1.9,0,3,0.7,3,3.1
						c0,2.3-1.1,3.1-3,3.1H32.2z"></path>
				</g>
			</svg>