<svg xmlns="http://www.w3.org/2000/svg" width="154" height="48">
    <style type="text/css">.st0{fill:none;}
        .st1{fill:#28a745;}
    </style>

    <g>
        <title>background</title>
        <rect height="402" width="582" class="st0" y="-1" x="-1" id="canvas_background"/>
    </g>
    <g>
        <title>Layer 1</title>
        <g id="svg_1">
            <g id="svg_2">
                <g id="svg_3">
                    <path id="svg_4"
                          d="m56.8,22.9l-1.4,2.3l2.2,0l0,-2.3c0,-1.1 0.3,-2.1 0.3,-2.1l-0.1,0c0,0 -0.4,1 -1,2.1z"
                          class="st1"/>
                    <path id="svg_5" d="m26.9,20.3l-1.1,0l-0.7,2.1l1.1,0c0.6,0 1.1,-0.3 1.3,-1.1c0.3,-0.7 0,-1 -0.6,-1z"
                          class="st1"/>
                    <path id="svg_6"
                          d="m18.9,16.7c-2.2,0 -4.1,1.5 -4.8,3.7l-1.5,5c-0.1,0.2 -0.3,0.3 -0.4,0.1l-1.1,-1.7c-1.5,-2.2 -3.9,-3.5 -6.4,-3.5l6.2,9.3c0.4,0.7 1.2,1.1 1.9,1.1l0,0l48.6,0c1,0 2,-0.7 2.3,-1.7l6.1,-12.2l-50.9,0l0,-0.1zm11.1,9.5c-0.8,2.4 -2.6,3.3 -5.4,3.3l-5.6,0l3.7,-11.6l5.5,0c2.6,0 3.7,1 3,3.2c-0.4,1.2 -1.2,2 -2.3,2.4c1.1,0.5 1.6,1.3 1.1,2.7zm10.7,-2.6c-0.2,0.6 -0.4,0.9 -0.6,1.3l-3.7,0l-0.7,2.1l4.8,0c0,0.3 -0.1,0.8 -0.2,1.3c-0.2,0.5 -0.4,1 -0.6,1.3l-8.7,0l3.7,-11.6l8.4,0c0,0.2 0,0.7 -0.2,1.2c-0.2,0.5 -0.4,1 -0.6,1.3l-4.6,0l-0.6,1.9l3.7,0c0.1,0.3 0.1,0.6 -0.1,1.2zm5,5.7c0,0 -0.8,0.1 -1.9,0.1c-1.1,0 -1.9,-0.1 -1.9,-0.1l3.7,-11.4l7.6,0c0,0 0,0.5 -0.3,1.4c-0.2,0.8 -0.6,1.3 -0.6,1.3l-3.8,0l-2.8,8.7zm13.6,0.2c-1.2,0 -1.8,-0.1 -1.8,-0.1l0,-1.9l-3.7,0l-1.2,1.9c0,0 -0.7,0.1 -1.9,0.1c-1.1,0 -1.8,-0.1 -1.8,-0.1l7.4,-11.4c0,0 0.9,-0.1 2.5,-0.1c1.7,0 2.4,0.1 2.4,0.1l0,11.3c0.1,0 -0.6,0.2 -1.9,0.2z"
                          class="st1"/>
                    <path id="svg_7"
                          d="m25.5,24.9l-1.1,0l-0.7,2.2l1.1,0c0.7,0 1.3,-0.3 1.6,-1.1c0.2,-0.9 -0.2,-1.1 -0.9,-1.1z"
                          class="st1"/>
                </g>
            </g>
            <g id="svg_8">
                <g id="svg_9">
                    <path id="svg_10"
                          d="m73.7,17.9c1.3,0 1.9,0.1 1.9,0.1l1.1,11.3c0,0 -0.6,0.1 -1.6,0.1c-1,0 -1.4,-0.1 -1.4,-0.1l-0.2,-2.1l-3.7,0l-1.1,2.1c0,0 -0.6,0.1 -1.5,0.1c-0.9,0 -1.4,-0.1 -1.4,-0.1l5.9,-11.3c0,0 0.7,-0.1 2,-0.1zm-0.7,2.6c0,0 -0.3,0.9 -0.8,2l-1.4,2.6l2.5,0l-0.2,-2.6c-0.1,-1.1 0,-2 -0.1,-2l0,0z"
                          class="st1"/>
                    <path id="svg_11"
                          d="m75.1,29.7c-1,0 -1.5,-0.1 -1.5,-0.2l-0.1,0l-0.2,-2.1l-3.4,0l-1.1,2.1l-0.1,0c0,0 -0.6,0.2 -1.6,0.2c-0.9,0 -1.5,-0.1 -1.5,-0.2l-0.2,-0.1l6.1,-11.6l0.1,0c0,0 0.8,-0.1 2.1,-0.1c1.3,0 2,0.1 2,0.2l0.1,0l1.1,11.6l-0.2,0c0.1,0 -0.5,0.2 -1.6,0.2zm-1.2,-0.5c0.2,0 0.6,0.1 1.3,0.1c0.7,0 1.2,-0.1 1.4,-0.1l-1.1,-11c-0.2,0 -0.8,-0.1 -1.8,-0.1c-1,0 -1.7,0.1 -1.9,0.1l-5.8,11c0.2,0 0.6,0.1 1.1,0.1c0.7,0 1.2,-0.1 1.4,-0.1l1.1,-2.2l4,0l0.3,2.2zm-0.4,-3.9l-3,0l1.5,-2.9c0.5,-1 0.8,-1.9 0.8,-1.9l0,-0.1l0.4,0l0,0.2c0,0 -0.1,0.9 0,1.9l0.3,2.8zm-2.3,-0.4l1.9,0l-0.2,-2.4c0,-0.3 0,-0.6 0,-0.9c-0.1,0.3 -0.3,0.6 -0.5,1l-1.2,2.3z"
                          class="st1"/>
                </g>
                <g id="svg_12">
                    <path id="svg_13"
                          d="m85.2,17.9c2.3,0 3.3,1.1 2.9,3.2c-0.2,1.1 -0.9,1.9 -1.8,2.4c0.9,0.5 1.4,1.3 1.1,2.7c-0.5,2.3 -2.1,3.3 -4.5,3.3l-5,0l2.5,-11.6l4.8,0zm-2.5,9.4c0.9,0 1.4,-0.4 1.6,-1.3c0.2,-1 -0.2,-1.3 -1,-1.3l-1.4,0l-0.6,2.6l1.4,0zm1,-4.8c0.7,0 1.2,-0.5 1.4,-1.3c0.2,-0.8 -0.1,-1.3 -0.8,-1.3l-1.3,0l-0.5,2.5l1.2,0l0,0.1z"
                          class="st1"/>
                    <path id="svg_14"
                          d="m82.8,29.7l-5.2,0l2.6,-12l5.1,0c1.2,0 2.1,0.3 2.7,1c0.5,0.6 0.6,1.4 0.4,2.5c-0.2,1 -0.8,1.8 -1.6,2.4c0.6,0.4 1.2,1.2 0.9,2.7c-0.7,2.2 -2.3,3.4 -4.9,3.4zm-4.7,-0.4l4.8,0c2.4,0 3.9,-1.1 4.3,-3.2c0.2,-1.2 -0.1,-2 -1,-2.4l-0.3,-0.2l0.3,-0.2c0.9,-0.5 1.5,-1.3 1.7,-2.3c0.2,-0.9 0.1,-1.6 -0.3,-2.1c-0.4,-0.5 -1.2,-0.8 -2.4,-0.8l-4.8,0l-2.3,11.2zm4.6,-1.8l-1.6,0l0.6,-3l1.5,0c0.5,0 0.9,0.1 1.1,0.4c0.2,0.3 0.3,0.6 0.2,1.2c-0.2,0.9 -0.8,1.4 -1.8,1.4zm-1.1,-0.4l1.1,0c0.8,0 1.2,-0.4 1.4,-1.2c0.1,-0.4 0.1,-0.7 -0.1,-0.9c-0.1,-0.2 -0.4,-0.2 -0.8,-0.2l-1.2,0l-0.4,2.3zm2.1,-4.4l-1.6,0l0.6,-2.9l1.5,0c0.4,0 0.7,0.1 0.9,0.3c0.2,0.3 0.3,0.7 0.2,1.2c-0.3,0.9 -0.8,1.4 -1.6,1.4zm-1.1,-0.4l1.1,0c0.6,0 1,-0.4 1.2,-1.1c0.1,-0.4 0.1,-0.7 -0.1,-0.8c-0.1,-0.1 -0.3,-0.2 -0.6,-0.2l-1.1,0l-0.5,2.1z"
                          class="st1"/>
                </g>
                <g id="svg_15">
                    <path id="svg_16"
                          d="m95.1,17.9c1.3,0 1.9,0.1 1.9,0.1l1.1,11.3c0,0 -0.6,0.1 -1.6,0.1c-1,0 -1.4,-0.1 -1.4,-0.1l-0.2,-2.1l-3.7,0l-1.2,2.1c0,0 -0.6,0.1 -1.5,0.1c-0.9,0 -1.4,-0.1 -1.4,-0.1l5.9,-11.3c0,0 0.8,-0.1 2.1,-0.1zm-0.7,2.6c0,0 -0.3,0.9 -0.8,2l-1.4,2.6l2.5,0l-0.2,-2.6c-0.2,-1.1 -0.1,-2 -0.1,-2l0,0z"
                          class="st1"/>
                    <path id="svg_17"
                          d="m96.5,29.7c-1,0 -1.5,-0.1 -1.5,-0.2l-0.1,0l-0.2,-2.1l-3.4,0l-1.1,2.1l-0.1,0c0,0 -0.6,0.2 -1.6,0.2c-0.9,0 -1.5,-0.1 -1.5,-0.2l-0.2,-0.1l6.1,-11.6l0.1,0c0,0 0.8,-0.1 2.1,-0.1c1.3,0 2,0.1 2,0.2l0.1,0l1.1,11.6l-0.2,0c0,0 -0.5,0.2 -1.6,0.2zm-1.3,-0.5c0.2,0 0.6,0.1 1.3,0.1c0.7,0 1.2,-0.1 1.4,-0.1l-1.1,-11c-0.2,0 -0.8,-0.1 -1.8,-0.1c-1,0 -1.7,0.1 -1.9,0.1l-5.8,11c0.2,0 0.6,0.1 1.1,0.1c0.7,0 1.2,-0.1 1.4,-0.1l1.2,-2.2l4,0l0.2,2.2zm-0.3,-3.9l-3,0l1.5,-2.9c0.5,-1 0.8,-1.9 0.8,-1.9l0,-0.1l0.4,0l0,0.2c0,0 -0.1,0.9 0,1.9l0.3,2.8zm-2.4,-0.4l1.9,0l-0.2,-2.4c0,-0.3 0,-0.6 0,-0.9c-0.1,0.3 -0.3,0.6 -0.5,1l-1.2,2.3z"
                          class="st1"/>
                </g>
                <g id="svg_18">
                    <path id="svg_19"
                          d="m107.7,18c0,0 0.7,-0.1 1.6,-0.1c0.9,0 1.5,0.1 1.5,0.1l-2.4,11.3c0,0 -0.7,0.1 -1.6,0.1c-1,0 -1.5,-0.1 -1.5,-0.1l1,-4.6l-3,0l-1,4.6c0,0 -0.7,0.1 -1.6,0.1c-1,0 -1.5,-0.1 -1.5,-0.1l2.4,-11.3c0,0 0.6,-0.1 1.6,-0.1c0.9,0 1.5,0.1 1.5,0.1l-0.9,4.3l3,0l0.9,-4.3z"
                          class="st1"/>
                    <path id="svg_20"
                          d="m106.8,29.7c-1,0 -1.5,-0.1 -1.6,-0.2l-0.2,0l1,-4.5l-2.6,0l-1,4.6l-0.1,0c0,0 -0.7,0.1 -1.6,0.1c-1,0 -1.5,-0.1 -1.6,-0.2l-0.2,0l2.5,-11.6l0.1,0c0,0 0.7,-0.2 1.6,-0.2c0.9,0 1.5,0.1 1.6,0.2l0.2,0l-0.9,4.3l2.6,0l0.9,-4.3l0.1,0c0,0 0.7,-0.1 1.6,-0.1c0.9,0 1.5,0.1 1.6,0.2l0.2,0l-2.5,11.6l-0.1,0c0,-0.1 -0.7,0.1 -1.6,0.1zm-1.3,-0.5c0.2,0 0.7,0.1 1.3,0.1c0.6,0 1.2,-0.1 1.4,-0.1l2.3,-11c-0.2,0 -0.7,-0.1 -1.3,-0.1c-0.6,0 -1.2,0.1 -1.4,0.1l-0.9,4.3l-3.4,0l0.9,-4.4c-0.2,0 -0.7,-0.1 -1.3,-0.1c-0.6,0 -1.2,0.1 -1.4,0.1l-2.3,11c0.2,0 0.7,0.1 1.3,0.1c0.6,0 1.2,-0.1 1.4,-0.1l1,-4.6l3.4,0l-1,4.7z"
                          class="st1"/>
                </g>
                <g id="svg_21">
                    <path id="svg_22"
                          d="m119.7,17.9c0,0 0.1,0.4 -0.1,1.2c-0.1,0.7 -0.4,1.2 -0.4,1.2l-3.8,0l-1.9,9.1c0,0 -0.6,0.1 -1.6,0.1c-0.9,0 -1.5,-0.1 -1.5,-0.1l2.4,-11.5l6.9,0z"
                          class="st1"/>
                    <path id="svg_23"
                          d="m111.9,29.7c-0.9,0 -1.5,-0.1 -1.6,-0.2l-0.2,0l2.5,-11.8l7.2,0l0,0.2c0,0 0.1,0.5 -0.1,1.3c-0.1,0.7 -0.4,1.2 -0.4,1.2l-0.1,0.1l-3.7,0l-1.9,9.1l-0.1,0c0,-0.1 -0.7,0.1 -1.6,0.1zm-1.3,-0.5c0.2,0 0.7,0.1 1.3,0.1c0.6,0 1.2,-0.1 1.4,-0.1l1.9,-9.1l3.8,0c0.1,-0.2 0.2,-0.5 0.3,-1c0.1,-0.5 0.1,-0.8 0.1,-1l-6.4,0l-2.4,11.1z"
                          class="st1"/>
                </g>
                <g id="svg_24">
                    <path id="svg_25"
                          d="m124.3,17.9c1.3,0 1.9,0.1 1.9,0.1l1.1,11.3c0,0 -0.6,0.1 -1.6,0.1c-1,0 -1.4,-0.1 -1.4,-0.1l-0.2,-2.1l-3.7,0l-1.1,2.1c0,0 -0.6,0.1 -1.5,0.1c-0.9,0 -1.4,-0.1 -1.4,-0.1l5.9,-11.3c0,0 0.8,-0.1 2,-0.1zm-0.6,2.6c0,0 -0.3,0.9 -0.8,2l-1.4,2.6l2.5,0l-0.2,-2.6c-0.2,-1.1 -0.1,-2 -0.1,-2l0,0z"
                          class="st1"/>
                    <path id="svg_26"
                          d="m125.8,29.7c-1,0 -1.5,-0.1 -1.5,-0.2l-0.1,0l-0.2,-2.1l-3.4,0l-1.1,2.1l-0.1,0c0,0 -0.6,0.2 -1.6,0.2c-0.9,0 -1.5,-0.1 -1.5,-0.2l-0.2,-0.1l6.1,-11.6l0.1,0c0,0 0.8,-0.1 2.1,-0.1c1.3,0 2,0.1 2,0.2l0.1,0l1.1,11.6l-0.2,0c0,0 -0.6,0.2 -1.6,0.2zm-1.3,-0.5c0.2,0 0.6,0.1 1.3,0.1c0.7,0 1.2,-0.1 1.4,-0.1l-1.1,-11c-0.2,0 -0.8,-0.1 -1.8,-0.1c-1,0 -1.7,0.1 -1.9,0.1l-5.8,11c0.2,0 0.6,0.1 1.1,0.1c0.7,0 1.2,-0.1 1.4,-0.1l1.1,-2.2l4,0l0.3,2.2zm-0.3,-3.9l-3,0l1.5,-2.9c0.5,-1 0.8,-1.9 0.8,-1.9l0,-0.1l0.4,0l0,0.2c0,0 -0.1,0.9 0,1.9l0.3,2.8zm-2.4,-0.4l1.9,0l-0.2,-2.4c0,-0.3 0,-0.6 0,-0.9c-0.1,0.3 -0.3,0.6 -0.5,1l-1.2,2.3z"
                          class="st1"/>
                </g>
                <g id="svg_27">
                    <path id="svg_28"
                          d="m131.6,29.3c0,0 -0.6,0.1 -1.6,0.1c-1,0 -1.5,-0.1 -1.5,-0.1l2.4,-11.5l4.6,0c2.5,0 3.6,1.6 3.1,4s-2.2,3.5 -4.7,3.5l-1.5,0l-0.8,4zm2.4,-6.2c0.8,0 1.4,-0.5 1.6,-1.5c0.2,-1 -0.2,-1.5 -1,-1.5l-1.1,0l-0.6,2.9l1.1,0l0,0.1z"
                          class="st1"/>
                    <path id="svg_29"
                          d="m130,29.7c-1,0 -1.5,-0.1 -1.6,-0.2l-0.2,0l2.5,-11.8l4.8,0c1.2,0 2.2,0.4 2.8,1.1c0.6,0.8 0.8,1.9 0.5,3.2c-0.5,2.5 -2.2,3.7 -4.9,3.7l-1.4,0l-0.8,3.9l-0.1,0c0,-0.1 -0.6,0.1 -1.6,0.1zm-1.3,-0.5c0.2,0 0.7,0.1 1.3,0.1c0.7,0 1.2,-0.1 1.4,-0.1l0.8,-3.9l1.7,0c2.5,0 4,-1.1 4.5,-3.4c0.3,-1.2 0.1,-2.2 -0.4,-2.9c-0.5,-0.6 -1.3,-0.9 -2.5,-0.9l-4.4,0l-2.4,11.1zm5.3,-5.9l-1.3,0l0.7,-3.3l1.2,0c0.4,0 0.8,0.1 1,0.4c0.2,0.3 0.3,0.7 0.2,1.3c-0.2,1 -0.9,1.6 -1.8,1.6zm-0.9,-0.4l0.8,0c0.7,0 1.2,-0.5 1.4,-1.3c0.1,-0.5 0.1,-0.8 -0.1,-1c-0.1,-0.2 -0.4,-0.2 -0.7,-0.2l-0.9,0l-0.5,2.5z"
                          class="st1"/>
                </g>
                <g id="svg_30">
                    <path id="svg_31"
                          d="m148.4,27.2l-1,4.5c-0.4,0.1 -0.8,0.2 -1.4,0.2c-0.6,0 -1.1,0 -1.4,-0.2l0.5,-2.2l-5.6,0l-0.5,2.2c-0.4,0.1 -0.9,0.1 -1.5,0.1c-0.6,0 -1,0 -1.4,-0.1l1,-4.5l0.9,0c0.7,-0.4 1.4,-1.5 2.1,-3.6l1.6,-5.7l7.4,0l-2,9.4l1.3,0l0,-0.1zm-5.4,-3.5c-0.5,1.7 -1,2.8 -1.6,3.6l2.6,0l1.5,-7.2l-1.5,0l-1,3.6z"
                          class="st1"/>
                    <path id="svg_32"
                          d="m146,32.1c-0.6,0 -1.1,-0.1 -1.5,-0.2l-0.2,-0.1l0.5,-2.2l-5.2,0l-0.5,2.2l-0.1,0c-0.5,0.1 -0.9,0.1 -1.5,0.1c-0.6,0 -1.1,-0.1 -1.4,-0.2l-0.2,0l1,-4.8l1,0c0.7,-0.4 1.4,-1.6 1.9,-3.5l1.7,-5.8l7.8,0l-2,9.4l1.3,0l-1,4.9l-0.1,0c-0.5,0.1 -1,0.2 -1.5,0.2zm-1.2,-0.5c0.3,0.1 0.7,0.1 1.2,0.1c0.5,0 0.8,0 1.2,-0.1l0.9,-4.1l-1.3,0l2,-9.4l-7,0l-1.6,5.6c-0.6,2.1 -1.3,3.3 -2.1,3.8l0,0l-0.8,0l-0.9,4.2c0.3,0.1 0.7,0.1 1.2,0.1c0.5,0 0.9,0 1.3,-0.1l0.5,-2.3l6,0l-0.6,2.2zm-0.6,-4.2l-3.2,0l0.2,-0.3c0.6,-0.8 1.1,-1.9 1.5,-3.5l1.1,-3.8l2,0l-1.6,7.6zm-2.4,-0.4l2.1,0l1.5,-6.8l-1.2,0l-1,3.5c-0.4,1.4 -0.9,2.5 -1.4,3.3z"
                          class="st1"/>
                </g>
            </g>
        </g>
    </g>
</svg>