<?xml version="1.0" encoding="UTF-8"?> <svg xmlns="http://www.w3.org/2000/svg" xmlns:xlink="http://www.w3.org/1999/xlink" xmlns:xodm="http://www.corel.com/coreldraw/odm/2003" xml:space="preserve" width="350mm" height="220mm" version="1.1" style="shape-rendering:geometricPrecision; text-rendering:geometricPrecision; image-rendering:optimizeQuality; fill-rule:evenodd; clip-rule:evenodd" viewBox="0 0 35000 22000"> <defs> <style type="text/css"> .fil0 {fill:#BA4428} </style> </defs> <g id="Слой_x0020_1"> <metadata id="CorelCorpID_0Corel-Layer"></metadata> <path class="fil0" d="M26186.27 8320.3c82.56,-71.43 380.71,-300.25 432.26,-308.96 -130.84,22.19 -278.93,47.17 -477.48,61.85l45.22 247.11z"></path> <path class="fil0" d="M26104.36 8120.63l62.03 412.45c116.42,-157.15 294.87,-194.28 474.85,-240.7 -164.69,-20.03 -377.43,-100.32 -536.88,-171.75z"></path> <path class="fil0" d="M25623.6 10963.56c-91.95,-83.27 -340.3,-63.65 -365.86,-61.6 -102.44,-102.38 -601.54,-874.55 -741.33,-1137.16l-807.51 -57.86 0 53.67c10.05,0.67 20.31,1.29 30.58,2.31 337.03,18.26 660.29,133.79 850.11,371.06 33.63,42.07 144.81,181.05 306.44,399.56 57.01,77.04 111.62,162.21 159.45,255.8 29.71,58.45 67.28,102.29 76.89,173.89 9.83,73.63 -44.56,76.1 -70.55,100.25 -46.96,43.17 -87.15,97.77 -126.47,156.48 -16.6,24.99 -28.61,63.57 -42.16,94.28 -2.62,5.89 -35.16,69.63 -14.85,67.99 12.23,-0.94 19.66,-12.27 29.49,-19.88 7.86,-6.13 20.31,-20.64 26.65,-30.36 35.82,-55.54 56.35,-68.6 74.04,-83.87 34.3,-29.45 63.56,-65.2 91.74,-88.83 26.87,-22.61 43.9,-31.39 73.61,-46.33 14.63,-7.34 33.2,-13.3 48.49,-17.83 7.86,-2.31 37.57,17.33 42.59,21.85 459.79,414.15 494.51,266.28 101.79,-62.12 219.51,-62.89 549.55,110.58 256.86,-91.3z"></path> <path class="fil0" d="M23571.07 9871.52c5.68,15.88 -14.19,-14.15 -24.68,-6.14 -107.24,81.32 -567.46,447.95 -682.99,589.66 -70.66,86.61 -131.91,143.86 -210.41,238.48 -9.21,11.01 -23.54,9.56 -36.87,4.19 -47.5,-19.05 -81.64,-23.98 -142.39,-36.43 -87.11,-17.93 -186.01,-40.72 -271.85,-8.72 -5.28,1.97 -11.42,5.55 -11.07,11.1 0.24,4.43 4.52,7.43 8.52,9.39 18.17,9.13 35.4,5.79 55.21,10.75 27.98,6.81 54.35,13.39 81.3,23.81 25.6,9.89 52.31,20.2 77.56,31.21 41.31,18.11 115.7,54.69 145.3,90.89 241.55,295.11 147.37,639.98 208.2,612.76 66.21,-101.52 -7.34,-380.01 -44.71,-496.83 -5.81,-18.26 8.96,-36.69 27.98,-34.81 62.12,6.24 101.28,47.53 209.47,108.53 190.27,107.34 311.43,141.98 219.27,65.79 -46.06,-38.13 -68.25,-69.72 -274.73,-208.18 -0.68,-0.43 -1.38,-0.85 -2.14,-1.29 -57.6,-30.62 -109.71,-69.11 -172.51,-100.08 -15.79,-7.84 -19.81,-28.74 -7.78,-41.8 56.31,-61.51 131.67,-127.91 181.49,-187.98 0.59,-0.68 1.2,-1.44 1.88,-2.03 129.44,-102.49 206.98,-152.9 388.03,-253.68 0.52,-0.33 1.2,-0.41 1.79,-0.68 49.19,-20.81 413.96,-321.74 459.83,-336.94l-183.7 -80.97z"></path> <path class="fil0" d="M23497.03 3209.35l559.82 334.45c0,0 -315.41,-17.06 -557.2,-46.16 -27.09,-0.26 -53.95,-0.59 -80.82,-0.85 -134.37,-1.46 -217.13,185.93 -275.06,561.68 -57.95,376 -435.84,506.46 -596.67,450.65 -53.49,-27.45 -80.2,-54.52 -79.68,-108.51 -24.83,-187.89 -410.75,695.53 -528.83,1662.23 -86.86,564.14 -39.84,1209.87 -208.02,1826.92 -138.73,402.03 -358.35,803.12 -738.89,1175.73 -108.95,106.66 -244.35,212.53 -380.28,318.68 -352.55,265.17 -1107.97,499.13 -1053.04,392.4 0,0 -272.59,346.49 -328.4,507.49 -82.26,160.5 80.03,54.43 424.48,542.22 77.04,350.85 645.8,-19.97 1235.8,147.78 27.05,0.35 53.91,0.59 80.89,0.94 536.16,167.4 426.51,354.94 426.51,354.94 -133.26,-109.39 -293.93,-165.28 -427.98,-220.56 -322.17,-56.9 -618.75,-6.64 -781.36,126.2 -134.82,-1.46 106.74,54.85 375.07,138.98 133.7,54.79 294.44,110.42 401.62,165.53 107.07,54.78 160.06,109.03 159.71,136.34 -0.26,26.8 -53.49,-0.59 -160.82,-28.92 -268.25,-83.35 -723.88,-249.9 -858.08,-251.37 -161.18,-28.24 -162.64,106.22 -55.55,134.14 214.41,109.63 774.12,573.19 746.82,626.77 0,0 -1.71,161.08 -962.51,-548.03 -345.9,-353.65 -1074.65,-146.76 -1074.65,-146.76 -25.93,-80.88 325.08,-184.87 647.34,-153.75 563.91,86.28 -393.49,-946.04 -634.87,-1002.61 -214.66,-29.09 -375.6,-84.81 -509.21,-166.96 -160.32,-109.21 -239.41,-244.88 -292.64,-298.89 -405.38,183.87 -890.61,259.2 -1347.83,254.26 -241.65,-29.53 -456.64,-58.53 -670.98,-141.56 -187.71,-56.22 -347.69,-165.17 -481.3,-274.38 52.05,162.03 -435.91,533.41 -971.99,366.1 0,0 -54.34,53.25 -162.79,105.72 -162.79,132.93 -406.99,318.59 -542.48,424.9 -108.44,79.7 214.23,83.2 536.41,140.36 214.84,28.83 456.75,58.36 563.23,167.4 320.12,218.33 105.02,243.26 105.02,243.26 0,0 -347.17,-245.82 -669.34,-303.5 0,0 -26.54,-26.96 -53.67,-27.31 -107.42,-1.09 -54.36,53.67 52.47,134.99 240.53,137.37 641.71,356.82 613.11,518.17 -56.57,267.81 -162.79,132.32 -348.54,-111.7 -52.99,-80.71 -159.47,-163.21 -266.89,-191.04 -133.26,-109.3 -267.48,-137.28 -267.48,-137.28 0,0 186.01,216.81 264.25,433.36 26.28,53.92 52.31,134.63 52.05,161.85 -27.57,53.49 -27.83,80.38 -54.96,106.57 -55.37,134.55 -217.31,186.16 -217.31,186.16 0,0 112.3,-428.99 -207.5,-701.34 -26.45,-54.17 -79.68,-81.73 -132.93,-136.08 -133.44,-108.97 -294.02,-191.47 -427.46,-273.73 -133.96,-55.45 -214.34,-82.84 -214.34,-82.84 -161.09,-28.75 -536.75,-113.56 -428.39,-193.16 217.22,-186.09 590.94,87.2 590.94,87.2l54.09 -26.19c81.23,-53.25 270.97,-185.42 433.61,-291.47 108.19,-79.52 216.72,-158.7 298.11,-212.02 216.45,-131.91 246.16,-374.05 246.16,-374.05 -185.92,-243.52 -102.99,-431.06 33.18,-591.04 163.64,-186.6 407.08,-318.33 488.22,-371.49 0,0 -215.78,51.81 -485.32,102.66 -161.94,51.52 -377.54,102.9 -566.44,155.01 -189.17,51.97 -351.29,130.73 -432.76,210.41l-26.95 -0.26c-298.63,265.78 -699.9,72.95 -508.63,-247.08 82.61,-133.7 298.22,-212.38 541.13,-263.49 134.9,-52.29 296.66,-77.71 431.56,-103.22 296.4,-50.26 511.68,-74.92 485.23,-101.79 -53.6,-27.74 -241.82,-29.79 -484.11,-5.22 -134.58,-1.44 -269.21,23.72 -430.98,48.91 -242.56,24.04 -457.66,48.44 -673.01,46.15 -430.44,-4.61 -725.49,-61.27 -642.05,-329.78 55.8,-187.28 352.71,-291.97 649.04,-315.42 188.48,-24.84 403.65,-22.52 564.83,6.13 134.04,28.07 -133.88,-82.5 -563.62,-113.82 -241.82,-29.59 -510.75,-32.59 -834.39,44.98l-27.04 -0.27c-269.18,50.85 -589.15,-248.54 -129.43,-458.69 53.84,-26.71 107.77,-26.1 161.94,-52.46 242.9,-77.56 538.98,-101.79 834.97,-98.64 215.25,2.31 456.89,32.43 671.82,61.35 161.51,1.71 295.55,30.45 429.75,58.19 241.73,29.51 456.31,85.58 563.65,114.32 134.46,1.47 161.52,1.79 54.28,-53.58 -26.89,-0.26 -26.89,-0.26 -53.43,-27.71 -320.71,-191.56 -237.45,-432.94 4.96,-456.99 26.78,0.33 53.66,0.59 53.99,-26.36 0,0 -27.21,26.69 -53.99,26.36 -80.64,-0.85 -322.79,-3.43 -564.5,-33.03 -161.44,-1.79 -295.72,-30.29 -429.77,-58.53 -107.25,-27.9 -160.48,-82.59 -213.73,-137.02 -133.1,-135.84 29.45,-241.64 218.01,-266.3 80.97,-26.28 188.9,-51.71 242.15,-24.58 -26.3,-26.86 -134.14,-28.06 -241.56,-29.09 -187.97,-28.83 -429.77,-58.6 -671.24,-115 -428.98,-139.16 -830.25,-331.83 -745.96,-680.61 137.19,-240.7 351.53,-184.39 621.92,-288.82 -161.53,-1.71 -535.66,-221.24 -694.61,-438.05 -26.71,-27.22 -26.19,-80.97 -25.6,-135.14 0.59,-53.34 1.2,-107.25 28.77,-160.85 109.12,-133.35 270.97,-185.57 270.97,-185.57 -131.99,-243.41 -209.82,-513.45 -260.49,-782.9 1.44,-134.31 2.91,-269.03 4.35,-403.58 28.68,-187.8 111.09,-321.15 191.88,-347.51 -0.5,53.84 262.81,594.85 634.63,1028.97 132.5,163.31 292.65,299.15 480.03,382 -104.77,-270.23 -155.71,-539.66 194.1,-535.92 53.84,0.61 134.39,1.55 214.93,29.09 0,0 -132.59,-189.33 -210.57,-432.33 -78.23,-216.28 -129.02,-512.59 8.96,-833.74 55.28,-133.96 137.28,-267.57 246.14,-400.77 0,0 52.9,107.51 185.92,243.94 132.68,162.88 318.69,380.01 558.1,624.47 345.98,353.57 799.13,735.04 1279.99,1036.14 107.09,54.61 214.25,109.48 321.32,138.31 214.08,109.47 455.46,165.87 669.86,248.89 616.55,194.97 1234.19,309.38 1636.66,394.28 160.91,28.39 295.72,29.86 349.3,57.58 26.71,0.26 53.49,27.56 80.38,27.91 26.54,0.24 0.24,-27.06 -80.38,-27.91 -160.41,-109.72 492.57,-774.97 2386.46,-1803.62 54.08,-26.36 108.18,-52.38 162.35,-105.8 0,0 -80.44,-0.86 -161.15,-1.8 -107.51,-27.8 -214.34,-82.76 -159.3,-189.83 27.31,-53.58 81.65,-107.16 162.71,-132.58 107.92,-25.78 242.38,-24.33 242.38,-24.33 0,0 -157.57,-351.6 112.56,-455.96 134.9,-52.73 268.92,2.81 375.84,57.86 79.77,81.38 159.8,162.61 159.8,162.61 0,0 -22.78,-403.58 245.99,-373.87 161.17,28.92 267.65,110.56 374.31,219.62 106.9,81.74 186.08,190.01 186.08,190.01 0,0 83.78,-268.42 325.84,-265.78 241.75,30.12 371.93,434.71 289.15,622.16 -54.85,106.83 1.53,90.95 96.11,148.96 191.34,117.26 323.48,163.58 676.46,331.31l-648.72 -13.8zm-9088.87 216.78l0 0c-52.82,-107.92 -105.37,-216.02 -157.59,-351.18 24.57,215.37 76.03,431.21 154.36,647.26 315.51,675.67 927.01,1355.08 1597.81,1496.64 214.58,56.13 430.19,31.56 645.88,-19.64 -213.05,-191.38 -426.95,-327.63 -640.68,-464.15 -587.78,-356.38 -1124.36,-496.65 -1599.78,-1308.93l0 0zm-51.88 4814.99l0 0c402.97,57.84 805.09,169.6 1179.23,388.9 -239.24,-244.37 -694.85,-411.01 -1178.11,-496.76 -187.89,-28.83 -375.76,-57.84 -564.15,-59.81 -161.52,-1.79 -296.07,-3.23 -430.71,22.28 -296.16,23.55 -512.27,101.79 -567.05,209.04 134.37,1.35 322.77,-23.46 565.35,-48.12 134.28,1.44 269.18,-23.4 430.71,-21.67 188.39,2.03 376.52,4.08 564.73,6.14l0 0zm4.87 -457.25l0 0c-187.88,-29.27 -375.75,-58.28 -563.9,-87.11 -161.42,-1.7 -295.64,-30.38 -430.01,-31.82 -376.28,-30.63 -564.5,-32.68 -295.05,-83.35 80.71,0.85 188.65,-25.1 296.16,-23.9 134.64,-25.6 269.27,-24.16 430.69,-22.45 188.39,2.05 376.63,4.1 564.15,60.24 456.48,85.07 938.3,305.97 1444.33,768.33 -319.69,-299.22 -882.57,-466.38 -1446.37,-579.94l0 0zm1624.18 -951.09l0 0c-1242.02,443.51 -2336.19,-374.9 -883.5,-386.41 -268.01,-83.37 -509.63,-139.84 -724.12,-195.9 -214.75,-55.88 -402.73,-85.06 -563.31,-140.69 -160.92,-55.46 -322.09,-84.14 -429.25,-112.21 -509.28,-166.81 -481.89,-220.21 2.4,-215.01 107.4,1.2 268.84,2.9 430.36,4.61 161.18,1.79 349.13,30.64 564.39,32.93 349.41,30.71 725.58,61.77 1155.79,93.42 -294.81,-110.91 -696.66,-249.89 -1152.28,-415.94 -187.29,-82.76 -374.31,-192.48 -561.85,-275.32 -160.58,-82.35 -294.28,-164.35 -427.72,-247.11 -267.3,-163.73 -507.42,-354.85 -666.36,-571.81 -79.86,-81.32 -132.5,-189.59 -184.9,-297.28 52.99,53.85 133.28,108.63 186.6,136.19 213.66,163.38 426.95,300.42 668.07,410.73 133.52,81.99 294.46,137.54 428.4,192.84 187.21,109.46 401.61,166.03 562.11,248.29 615.94,248.87 1152.28,415.94 1472.99,607.48 -107.66,-1.12 -353.91,372.78 21.25,538.22 186.51,163.73 -247.69,508.09 101.52,539.31 53.85,0.61 107.6,1.11 188.57,2.05 -54.26,25.86 -108.19,52.47 -189.16,51.61l0 0zm2796.36 2612.49l0 0c-189.18,78.56 -351.21,130.88 -512.71,155.71 -592.39,74.66 -884.97,-251.54 -801.59,-492.65 -431.74,129.67 -701.19,154.09 -835.06,98.55 -133.79,-55.31 -105.11,-216.04 4.02,-376.63 109.3,-159.97 272.5,-319.44 489.66,-505.78 -189.07,78.94 -351.09,130.97 -485.82,156.24 -350.85,103.75 -511.09,-5.46 -480.2,-354.88 30.38,-349.54 247.43,-508.34 490.34,-586.49 107.77,-25.33 215.87,-51.79 323.46,-77.21 0,0 -271.5,238.72 -5.81,537.69 239.26,272.01 808.43,-125.59 725.93,61.69 -82.93,187.36 -330.71,722.76 99.56,727.37 161.26,1.79 323.38,-50.17 485.41,-102.13 269.71,-77.98 486.16,-183.11 486.16,-183.11 0,0 -489.66,506.05 -303.74,722.94 292.91,272.44 1644.06,-278.49 1941.75,-436.34 -141.3,590.18 -1897.39,1324.37 -1621.36,655.03l0 0zm2220.67 -1375.05l0 0c462.43,-479.09 174.81,-1262.51 67.47,-1263.71 54.46,-52.99 627.56,-826.61 520.22,-854.76 -190,159.12 -379.6,264.84 -568.51,343.43 -594.18,235.74 -1078.21,230.54 -862.16,125.24 459.95,-237.27 681.11,-799.54 600.23,-800.48 0,0 -245.05,293.17 -973.87,527.63 -701.69,207.41 -427.02,-327.55 -427.02,-327.55 0,0 -76.88,-350.42 -938.55,-252.63 -26.97,-0.35 -53.66,-0.61 -108.03,26.27 -754.74,153.32 -1005.51,957.23 -625.39,611.77 407.23,-345.31 780.87,-72.02 347.34,245.96 -488.22,371 -768.66,1417.29 263.05,540.87 54.51,-53.58 108.53,-79.77 162.61,-132.85 624.06,-477.54 1077.88,-149.9 641.71,383.09 -409.11,533.85 -489.49,478.92 -815.68,798.45 -0.24,26.96 -27.22,26.69 -27.46,53.5l26.87 0.26c669.6,276.35 1657.88,-1542.3 1622.82,-816.28 -61.68,725.74 -1333.5,1438.26 -550.49,1177.53 809.44,-233.28 1387.32,-1464.38 1462.68,-952.37 46.74,646.05 -763.72,987.25 -413.13,909.8 269.69,-77.91 459.02,-183.19 595.29,-343.17l0 0zm1549.35 -3991.2l0 0c-26.87,-0.26 -53.49,-27.56 -79.94,-81.91 -185.07,-270.8 -220.9,562.88 -714.58,1418.65l-0.59 53.34c-353.91,399.89 -623.12,423.78 -730.69,422.58 -26.98,-0.24 -53.84,-0.59 -53.84,-0.59 0,0 27.21,-26.54 54.43,-53.07 136.69,-187.28 572.86,-746.82 682.84,-961.07 27.21,-26.87 27.54,-53.58 54.51,-79.86 -81.23,79.53 -271.76,265.34 -730.69,422.17 -26.89,-0.26 -53.84,-0.5 -81.14,26.28 -674.74,207.59 -269.1,23.72 83.7,-268.07 81.31,-53.17 162.7,-133.2 217.57,-213.4 272.85,-373.62 462.69,-505.79 -49.41,-430.54 -53.58,-0.5 -107.6,25.69 -161.5,25.1 -430.63,22.02 -590.95,-60.16 -590.95,-60.16 0,0 296.66,-77.56 593.59,-182.25 107.92,-25.51 243,-77.8 323.79,-103.49 270.3,-105.21 -23.81,-269.53 -320.03,-245.73 -26.89,-0.34 -53.84,-0.58 -81.06,25.93 0.24,-26.86 27.81,-80.53 82.5,-160.82 109.71,-187.02 381.72,-479.77 733.93,-717.99 216.98,-132.25 487.28,-264.25 782.92,-260.99 80.79,0.85 161.43,1.7 242.14,2.64 107.51,28.42 241.47,83.61 267.07,191.39 50.58,296.48 -230.2,1396.36 -524.57,1231.86l0 0zm-33.18 -1266.51l13.89 3.41c28.42,51.35 41.72,144.12 -55.28,150.17 -137.96,8.6 -110.65,-92.07 -94.88,-124.24 15.79,-32.24 48.73,-28.31 48.73,-28.31 -84.99,-11.36 -158.27,19.88 -179.88,99.06 -10.39,37.96 -15.53,201.86 203.34,197.17 52.05,-1.12 79.68,-14.24 108.01,-25.93 127.14,-52.4 140.79,-255.8 2.9,-268.86l-26.86 -0.26 -19.97 -2.21z"></path> <path class="fil0" d="M13361.01 17405.63l0 0c-107.09,55.2 -268,84.12 -429.42,86.09 -215.54,-24.23 -458.1,-75.26 -674.38,-153.24 -350.86,-103.58 -676.44,-314.41 -840.7,-554.69 -54.84,-80.03 -82.67,-160.14 -110.74,-240.26l107.16 -55.46c240.7,-110.65 534.73,-248.7 828.48,-440.52 240.1,-164.32 506.46,-382.92 664.49,-653.65 52.82,-81.21 105.11,-189.84 130.71,-297.76 102.9,-377.63 96.59,-888.81 -148.79,-1181.63 -109.13,-132.93 -217.84,-212.7 -379.86,-264.25 -108.28,-52.38 -216.05,-78.65 -296.75,-77.72 -296.76,-49.58 -592.39,-46 -833.42,37.88 -910.66,333.69 -1407.57,1496.64 -1179.41,2569.74 28.33,106.81 29.95,241.71 85.32,348.45 -215.52,2.73 -377.72,-75.95 -515.26,-316.48 -438.73,-694.17 -619.43,-2278.77 -619.43,-2278.77 -188.39,2.31 -403.67,4.96 -618.75,7.6 81.82,79.35 -596.32,1836.64 -997.09,2056.51 -963.44,415.27 -286.5,-1422.05 -264.49,-1826.31 -295.63,30.97 -563.55,114.67 -858.86,171.92 -101.7,458.95 -337.45,1000.05 -599.64,1540.92 -210.39,406.37 -447.42,812.6 -685.22,1165.24 -1905.15,-1805.84 -1442.19,-5739.09 610.23,-7297.76 852.62,-655.6 1979.89,-884.53 3303.49,-416.71 1189.3,442.57 1177.96,1707.37 837.94,2518.01 -809.43,1974.18 -3489.15,661.76 -2777.04,-530.62 238.63,-272.17 642.12,-277.11 729.58,286.62 1403.72,386.5 1222.32,-1225.4 90.27,-1426.68 -647.25,-126.53 -2337.05,270.74 -1751.32,1958.39 946.39,2624.52 4371.98,1156.88 5182.37,-762.61 235.75,-514.23 255.71,-1079.14 -19.46,-1587.07 -55.54,-133.95 -137.63,-240.68 -246.93,-373.7 -517.97,-585.05 -1384.41,-1031.81 -2301.79,-1262.86 -1106.12,-255.95 -2127.85,-216.2 -3066.22,37.55 -2278.36,646.82 -3868.07,2656.49 -4164.65,4812.23 0,0 -70.03,652.41 -69.37,904.01l0.09 11.67c2.3,187.71 89.67,751.68 89.67,751.68 203.15,1208.26 862.69,2329.9 2056.51,3176.63 189.75,104.95 379.43,236.85 595.63,314.84 -531.97,490.94 -961.4,577.12 -1103.72,-67.06l-272.09 -238.31c-186.94,109.64 -343.08,541.97 -151.02,835.39 385.66,748.19 1323.76,467.9 2175.79,-241.8 324.32,103.58 647.93,180.37 971.4,229.85 1482.55,251.11 3038.56,-90.61 4480.68,-968.91 25.93,-54.52 103.23,-351.19 48.3,-430.96 -854.67,494.95 -2864.53,1137.77 -4488.29,323.45 -0.33,-26.62 -27.13,-26.28 -54.52,-52.9 -26.87,0.34 -53.75,0.69 -54.1,-25.93 26.54,-27.65 26.3,-54.44 52.81,-81.66 317.5,-434.71 554.1,-867.73 709.97,-1326.75 326.19,2470.75 1779.22,300.93 2145.51,-537.28 85.32,375.26 338.56,1286.65 799.04,1523.51 350.25,48.98 644.77,-61.69 911.57,-226.7 248.05,481.39 628.82,826.6 1035.05,1036.75 270.56,131.56 567.23,208.35 836.76,232.07 242.3,23.64 484.03,-5.97 671.65,-62.11 160.83,-55.55 320.8,-165.35 427.11,-274.4 106.07,-109.04 157.86,-270.47 48.56,-430.96 -26.87,0.35 -53.41,27.48 -53.41,27.48l0 0zm-10507.91 -1350.91l0 0c109.81,159.9 219.36,346.92 356.47,533.69 -136.77,-159.88 -246.24,-346.57 -356.47,-533.69 -302.72,-561.16 -497.26,-1070.02 -584.8,-1633.9 -517.73,-2737.73 1312.17,-4885.21 3453.42,-5771.95 1204.3,-498.79 2521.86,-568.75 3575.84,-151.63 -1348.53,-279.34 -2556.85,-102.96 -3573.2,366.71 -2781.59,1325.23 -4082.32,4919.16 -2871.26,7190.77l0 0zm7929.22 -527.37l0 0c-168.6,-589.65 -96.33,-1290.16 599.38,-1594.41 214.07,-83.11 482.5,-140.18 804.85,-144.11 -216.38,-131.91 -512.27,-128.33 -806.8,-17.65 -589.07,222.51 -1091.62,928.54 -597.43,1756.17l0 0zm304.18 668.66c-0.35,-26.71 26.86,-27.04 26.53,-53.84l-26.88 27.13c-31.39,-376.61 -13.83,-1129.91 304.09,-1537.07 79.61,-81.82 159.29,-163.56 239.67,-191.27 267.14,-137.81 455.29,-167.25 591.1,-60.6 81.74,79.1 137.22,240.01 140.19,482.07 1.96,161.26 -49.24,350.17 -127.65,539.74 -157.66,324.82 -449.8,624.15 -824.29,789.91 -107.16,55.13 -214.23,83.03 -321.5,111.53 -0.32,-27.13 -0.94,-80.38 -1.26,-107.6l0 0z"></path> <path class="fil0" d="M23441.98 14098.47l0 0c82.13,-134.14 137.18,-240.86 219.3,-374.4 0,0 -80.81,-0.94 -215.15,-2.3 -134.63,-1.55 -322.41,-30.38 -483.67,-59.21 -80.38,-0.85 -271.42,212.37 -462.8,506.46 -136.69,213.81 -246.91,454.25 -356.91,668.83 -107.74,25.28 -269.36,50.79 -457.9,75.19 -269.45,24.22 -565.35,48.03 -565.35,48.03 -26.36,-54.43 362.11,-1179.76 578.39,-1258.24 -321.83,-111.17 -537.11,-113.49 -725.5,-88.65 -188.54,24.92 -296.99,104.18 -296.99,104.18 -632.16,1257.65 -833.18,2439.52 -497.09,3707.49 269.71,-77.99 512.54,-156.23 755.27,-207.42 54.02,-26.36 107.92,-25.77 162.2,-51.53 -22.69,-403.92 -72.19,-807.92 -94.53,-1238.87 188.63,-24.49 458.08,-75.77 674.03,-127.06l215.7 -51.7c27.04,0.35 -93.6,1182.66 575.68,1485.63 53.82,0.6 107.57,28.41 161.08,29.01 107.66,1.11 215.76,-24.92 296.14,-24.06 -204.68,-970.38 51.03,-2204.72 518.1,-3141.38l0 0z"></path> <path class="fil0" d="M18593.97 15924.51c-49.82,24.25 -100.08,73.39 -150.42,97.79 -351.62,220.65 -652.28,392.05 -977.8,537.96 -250.93,121.92 -449.98,94.88 -548.36,-31.15 -123.36,-100.67 -120.98,-325.23 5.73,-523.19 25.33,-24.66 25.92,-74.31 50.85,-98.88 353.82,-445.21 1405.49,-882.5 1480.32,-881.65 71.84,275 168.01,600.34 139.68,899.12zm935.56 -1211.9c-262.46,-1099.79 -527.47,-1949.52 -1043.83,-2603.59 0.24,-24.84 -24.66,-25.1 -24.4,-49.67 -467.73,-528.9 -939.66,-683.52 -1490.68,-465.34 -125.07,48.54 -250.48,97.27 -375.66,170.99 -100.59,73.45 -175.77,122.51 -251.52,196.32 -427.89,394.36 -433.27,892.81 -411.18,1142.55 -1.62,149.32 145.64,375.17 393.42,502.55 173.98,76.6 372.7,103.75 622.69,56.9 25.33,-24.92 49.99,-24.66 100.17,-49.06 651.01,-242.14 259.29,-944.18 259.29,-944.18 -148.47,-76.53 -273.47,-52.9 -348.72,-3.76 -50.17,24.07 -75.51,73.9 -75.51,73.9 0,0 48.65,100.17 72.28,224.73 -0.26,25.19 -0.52,50.09 -1.11,99.93l-0.27 24.82c-51.78,173.97 -350.5,145.9 -473.02,-54.7 -147.17,-226 -166.63,-724.53 259.56,-944.77 75.07,-24.05 150.08,-47.86 225.06,-72.17 948.62,-139.33 1372.75,2158.47 1347.68,2158.12 -426.45,244.55 -952.2,463.39 -1379.41,782.83 -150.76,123.04 -301.78,245.91 -402.8,369.8 -100.76,98.72 -151.54,197.6 -227.9,321.73 -229.35,470.9 -311.17,1118.58 -15.86,1470.37 123.1,150.93 321.41,252.64 620.28,281.05 498.2,29.78 1126.17,-411.85 1527.7,-656.72 175.5,-97.96 300.84,-171.33 350.75,-170.83 -1.27,124.74 89.77,923.36 162.11,1148.27 249.48,2.73 850.5,-265.09 850.5,-265.09 0,0 -7.19,-1644.67 -269.62,-2744.98z"></path> <path class="fil0" d="M29619.89 16294.66c0.22,-7.87 0.88,-15.53 1.09,-23.4 -129.96,178.26 -320.42,379.78 -477.03,480.03 -131.49,61.01 -211.66,65.18 -266.92,41.31 -110.3,-48.12 -117.29,-182.52 -45.43,-347.69 -1.53,-27.06 -1.53,-27.06 24.25,-55.22 95.88,-220.63 242.88,-497.42 390.32,-774.55 266.91,-552.96 842.46,-1391.08 703.98,-1464.89 -140.01,-100.08 -735.22,-149.66 -735.22,-149.66 -147,277.31 -295.74,527.3 -442.52,804.26 -75.14,111.77 -148.31,250.16 -223.45,361.51 -268.44,14.16 -431.39,-3.75 -699.61,10.4 104.62,-571.4 544.31,-917.38 585.15,-1162.34 -86.05,-102.99 -769.28,-282.25 -769.28,-282.25 -152.46,169.36 -302.09,392.66 -399.94,586.6 -297.27,500.15 -483.37,1049.02 -592.37,1539.28 -178.23,709.88 -172.55,1328.81 -84.74,1458.93 29.92,52.39 110.08,48.12 164.03,45.3 162.51,18.43 428.33,-49.4 429.86,-22.61 0,0 63.56,-838.36 175.18,-1275.3 19.66,-135.34 69.24,-218.69 121.66,-248.81 186.53,-36.76 778.9,-40.95 778.9,-40.95 0,0 -203.57,738.03 -162.51,1005.19 14.2,268.58 146.56,746.56 815.82,657.05 53.73,-2.81 107.02,-5.63 159.45,-34.89 311.25,-89.68 483.37,-325.42 581.66,-592.13 -24.68,-167.07 -36.26,-339.26 -32.33,-515.17z"></path> <path class="fil0" d="M33003.94 15537.6c-1.09,105.63 -1.97,185.05 -28.83,211.32 0.65,-52.81 27.95,-131.73 28.83,-211.32 -22.94,-344.11 -358.44,-1061.41 -964.78,-1226.26 -262.98,-82.41 -607.88,-32.94 -1006.5,174.3 347.73,-313.81 692.84,-468.23 1009.56,-464.82 608.53,-20.3 1104.35,513.47 961.72,1516.78zm-607.88 -6.58c-2.4,211.68 -163.38,447.51 -377.22,657.07 -428.11,470.81 -1172.28,859.27 -1540.1,644.26 -183.7,-108.01 -285.92,-399.74 -201.61,-901.17 27.96,-132.09 109.43,-316.13 216.68,-499.98 134.77,-209.99 321.74,-419.11 534.7,-549.4 239.83,-155.45 690.44,-256.98 979.41,-121.4l26.43 0.24c236.56,134.55 391.86,426.87 361.71,770.38zm227.6 -1503.98c-184.13,-81.91 -395.13,-136.51 -579.7,-165.17 -554.36,-58.54 -1111.99,199.57 -1539.45,591.19 -373.94,366.71 -669.91,839.05 -833.29,1286.58 -27.52,105.54 -106.15,302.45 -107.9,407.75 -13.76,158.86 12.67,429.75 20.1,410.31 46.74,555.53 385.95,982.65 885.71,1173.17l26.21 0.26c473.76,189.67 1030.96,63.74 1509.31,-221.75 611.8,-337.45 1093.87,-887.09 1284.55,-1413.62 354.94,-1106.28 -60.72,-1771.53 -665.54,-2068.72z"></path> <path class="fil0" d="M24261.29 14090.86c124.72,-80.96 275,-137.01 473.77,-126.53 -153.56,3.67 -322.18,163.06 -465.47,368.18 -178.45,302.3 -326.98,684.01 -370.88,981.53 -92.18,461.01 -215.15,-799.89 362.58,-1223.18zm2451.81 79.1l-490.14 -172.01c0,0 -128,192.76 -307.32,467.73 -153.99,220.83 -333.97,468.67 -541.04,718.33 -104.19,111.01 -180.85,221.24 -285.04,332.07 -388.8,444.28 -599.36,585.75 -761.43,564.15 -27.96,-25.75 -82.34,-50.85 -110.08,-77.21 -166.01,-128.74 -70.34,-481.89 78.63,-863.72 276.74,-574.8 712.72,-1207.97 685.85,-1207.12 -274.12,-152.81 -436.19,-173.89 -647.85,-58.8 -26.64,0.85 -53.07,28.33 -79.5,29.18 -500.19,339.93 -773.22,1022.25 -913.89,1645.61 -67.93,379.01 -83.28,729.58 -49.84,916.94 6.31,187.8 39.36,375.08 97.68,507.77 142.63,237.62 389.23,363.98 894.44,185.06 26.21,-27.48 52.64,-28.33 79.95,-29.27 397.31,-175.25 761.42,-563.89 1045.37,-923.09 283.96,-359.63 461.1,-688.56 461.1,-688.56 0,0 -252.28,493.16 -340.74,1060.97 -89.78,541.21 -134.34,812.11 -1.1,780.54 106.59,-30.29 321.09,-64.59 481.41,-96.59 133.46,-31.74 240.27,-62.28 240.27,-62.28 0,0 19.44,-215.78 19.44,-1023.02 9.61,-512.01 283.73,-1166.6 459.12,-1549.78 100.26,-218.25 175.84,-382.75 175.84,-382.75l-191.13 -74.15z"></path> <path class="fil0" d="M15758.54 14277.14c-325.75,-30.47 -837.35,-20.4 -1615.39,35.32 -43.43,3.05 -103.76,7.66 -152.64,25.07 -20.9,9.66 -33.2,14.68 -33.2,14.68 10.07,-5.88 21.34,-10.57 33.2,-14.68 32.33,-15 85.75,-41.37 148.79,-78.74 237.54,-71.25 661.35,-182.17 1197.84,-220.65 160.85,-11.43 295.22,-21.08 404.17,-2.38 461.77,47.94 477.13,262.78 477.13,262.78 0,0 -135.93,-17.14 -459.9,-21.4zm659.38 -208.79c-143.68,-124.92 -390.95,-187.89 -690.09,-219.96 -270.03,-7.77 -567.05,-13.56 -889.22,9.55 -294.96,21.08 -532.76,92.15 -718.49,132.17 -291.46,75 -475.33,141.62 -553.75,174.82 -51.87,30.21 -78.58,32.09 -78.58,32.09 0,0 -95.81,546.06 140.03,826.08 1.85,27.3 28.83,25.42 57.49,50.17 0,0 233.71,-124.74 498.11,-197.96 53.58,-3.82 105.63,-34.2 132.26,-36.08 27.04,-1.88 -18.94,109.21 -111.18,331.04 -247.19,692.56 -752.71,2292.61 186.34,2603.18 109.47,18.94 191.64,39.93 325.76,30.29 122.6,-548.11 277.46,-2527.66 672.33,-3041.4l408.01 51.73 299.14 32.32c0,0 235.83,-97.26 352.55,-348.54 21.26,-82.76 68.85,-167.05 61.18,-274.47 -5.72,-79.96 -36.34,-131.66 -91.89,-155.03z"></path> <path class="fil0" d="M30987.45 8982.56c91.3,-67.91 420.03,-286.42 475.94,-295.99 -141.76,24.33 -302.52,51.72 -517.01,71.34l41.07 224.65z"></path> <path class="fil0" d="M30971.94 8803.89l79.29 434.55c130.18,-147.35 298.8,-246.16 494.51,-294.11 -176.93,-13.3 -404.09,-80.11 -573.8,-140.44z"></path> <path class="fil0" d="M30489.44 12248.85c-107.9,-94.62 -332.01,-97.77 -357.56,-98.38 -91.74,-112.18 -509.8,-931.03 -622.29,-1206.53l-797.47 -139.33 -5.46 53.25c10.05,1.79 20.1,3.41 30.36,5.46 333.1,52.29 643.26,199.99 807.95,455.44 29.27,45.21 125.82,194.79 264.3,428.48 49.14,82.52 94.79,172.71 132.8,270.65 23.59,61.18 56.35,108.71 58.75,180.88 2.41,74.24 -51.98,71.16 -80.38,92.59 -50.89,38.22 -96.76,88.37 -141.53,142.82 -19.01,23.2 -35.17,60.31 -51.55,89.49 -3.28,5.55 -41.94,65.7 -21.63,66.21 12.24,0.26 20.75,-10.31 31.24,-16.89 8.52,-5.28 22.5,-18.43 29.7,-27.56 41.07,-51.53 62.91,-62.45 82.13,-75.84 37.13,-25.77 69.9,-58.36 100.26,-79.03 29.05,-19.79 46.96,-26.77 77.98,-38.64 15.07,-5.81 34.29,-9.8 50.01,-12.79 8.09,-1.45 35.61,21.07 40.19,26.1 415.23,458.6 465.03,315.01 107.69,-51.53 224.54,-40.36 535.35,165.7 264.51,-64.85z"></path> <path class="fil0" d="M28253.65 10819.46c5.68,15.86 -13.98,-14.09 -24.46,-6.14 -107.47,81.3 -567.69,447.93 -683.23,589.57 -70.56,86.67 -131.93,143.95 -210.35,238.57 -9.17,11.07 -23.59,9.54 -36.91,4.26 -47.4,-19.12 -81.69,-24.07 -142.41,-36.52 -87.15,-17.92 -185.88,-40.61 -271.72,-8.7 -5.24,1.95 -11.58,5.46 -11.14,11.16 0.22,4.37 4.58,7.34 8.52,9.31 18.13,9.13 35.38,5.9 55.04,10.66 28.18,6.92 54.39,13.56 81.47,23.98 25.56,9.81 52.42,20.14 77.54,31.15 41.28,18.08 115.55,54.69 145.25,90.86 241.58,295.14 147.44,640.01 208.16,612.79 66.4,-101.63 -7.21,-379.95 -44.56,-496.83 -5.89,-18.26 8.74,-36.6 27.96,-34.73 62.03,6.14 101.35,47.45 209.47,108.52 190.25,107.27 311.47,141.91 219.3,65.61 -46.09,-38.05 -68.37,-69.7 -274.78,-208.09 -0.65,-0.42 -1.53,-0.85 -2.18,-1.29 -57.45,-30.62 -109.65,-69.11 -172.56,-100.08 -15.72,-7.76 -19.66,-28.75 -7.64,-41.81 56.35,-61.51 131.71,-127.89 181.51,-187.95 0.65,-0.68 1.09,-1.47 1.74,-2.05 129.53,-102.47 207.07,-152.81 388.14,-253.75 0.44,-0.26 1.1,-0.35 1.75,-0.59 49.15,-20.75 413.92,-321.76 459.57,-336.94l-183.48 -80.97z"></path> <path class="fil0" d="M30591.01 9013.79c-26.43,-0.26 -75.58,-15.53 -86.06,-53.93 -11.14,-41.13 16.38,-91.3 63.12,-102.9 46.31,-11.68 72.08,16.39 72.08,16.39 80.82,28.06 31.89,141.29 -49.14,140.44zm-1022.67 814.83c-62.46,117.65 -233.27,447.25 -662.91,528.98 -204.67,38.93 -439.47,15.62 -763.18,-109.45 -46.74,-18.11 -134.33,-38.07 -134.33,-38.07 0,0 71.43,11.95 130.4,17.93 59.41,5.97 347.08,39.93 695.03,-26.21l40.84 -7.84c429.86,-81.65 623.82,-288.56 690.22,-385.56 16.38,-24.57 33.2,-48.82 33.2,-48.82 0,0 -16.82,24.25 -29.27,69.04zm-576.85 -52.22c186.97,-6.84 346.85,-47.62 423.3,-95.74 1.31,-0.76 2.62,-1.7 3.72,-2.64 163.38,-134.55 1.09,154.43 -402.12,248.2 -202.26,47.26 -478.57,28 -800.53,-138.22 0,0 423.31,17.91 775.63,-11.6zm-373.73 -425.34c125.38,49.58 328.29,77.3 528.59,-5.37 148.31,-69.11 224.1,105.21 101.78,166.9 -115.54,87.61 -370.44,73.71 -594.55,-31.5 -125.37,-49.82 -205.31,-138.9 -267.13,-261.59 0,0 80.16,89.34 231.31,131.56zm-717.52 1029.76l-168.19 -27.13 -119.26 -18.02c-34.94,-5.28 -38.88,-49.91 -5.02,-59.89 37.57,-11.09 79.72,-21.84 122.1,-28.07 2.18,-0.35 4.37,-0.43 6.77,-0.43 76.01,1.46 151.15,24.5 197.67,85.93 17.04,22.36 -4.58,52.31 -34.07,47.61zm-100.69 148.55c-1.75,8.02 -4.81,16.12 -10.49,22.35 -0.44,0.5 -0.87,0.94 -1.31,1.35 -46.96,44.8 -183.69,-53.49 -225.19,-79.09 -12.02,-7.4 -24.03,-14.92 -35.83,-22.61 -28.83,-18.59 -11.14,-59.63 24.03,-55.96 32.55,3.5 64.87,10.07 96.33,18.94 38.44,10.92 125.37,30.45 146.12,64.5 8.96,15.18 9.83,33.53 6.34,50.52zm3284.44 -1514.99c-22.93,-227.03 -89.99,-324.99 -243.76,-381.56 -434.45,-159.63 -831.11,-29.51 -1031.4,381.39 -7.43,15.44 -27.3,22.54 -44.34,15.7 -283.52,-113.99 -549.12,-135.84 -704.86,-137.36 -214.49,-2.06 -349.04,45.38 -563.09,18.93 -1.09,-0.08 -2.19,-0.17 -3.28,-0.24 -129.74,-2.31 -497.79,-139.77 -620.32,-554.34 -7.65,-25.68 -45.22,-30.88 -61.16,-8.62 -211.87,295.72 -32.77,570.21 195.49,721.32 24.68,16.29 15.29,51.61 -14.86,55.7 -125.15,16.99 -277.61,-69.44 -411.73,-173.04 -0.87,-0.5 -1.52,-1.09 -2.4,-1.61 -136.08,-84.73 -252.06,-186.69 -349.04,-275.94 -20.53,-19.02 -56.57,-6.9 -57.88,19.81 -13.11,242.74 183.04,462.1 402.99,599.47 0.66,0.5 1.53,1.02 2.18,1.61 160.11,123.13 320,173.48 400.59,174.33 -80.59,-0.85 -215.14,22.6 -402.55,-28.16 -0.66,-0.17 -1.31,-0.35 -1.75,-0.43 -133.89,-25.93 -267.57,-76.19 -400.59,-150.59 -160.32,-99.92 -295.53,-27.74 -216.24,120.14 104.63,196.73 392.95,419.44 610.72,474.04 176.48,44.1 193.96,23.2 211.43,79.51 15.51,49.84 -90.65,95.06 -186.1,128 -95.67,32.85 -135.86,31.56 -238.73,49.23 -131.06,22.52 -273.25,18.59 -381.81,2.88 -28.18,-3.99 -126.03,-24.66 -38.88,95.48 120.13,165.28 118.39,174.91 296.62,342.75 203.57,191.53 673.18,461.24 969.59,512.18 1303.11,223.8 1916.23,-328.93 1997.48,-400.83 161.86,-143.44 241.14,-242.23 314.32,-434.12 49.14,-128.67 65.31,-272.26 113.8,-403.76 76.66,-207.59 134.33,-283.42 285.48,-446.06 131.92,-141.98 192.86,-209.8 174.08,-395.81z"></path> <path class="fil0" d="M25776.94 8332.24c-28.18,-0.26 -80.38,-16.47 -91.3,-57.25 -12.02,-43.59 17.25,-96.84 66.84,-109.12 49.36,-12.38 76.44,17.39 76.44,17.39 85.84,29.79 33.86,149.92 -51.98,148.98zm-1300.72 279.59c-122.31,93 -392.72,78.26 -630.59,-33.44 -133.02,-52.91 -217.77,-147.35 -283.29,-277.56 0,0 84.96,94.8 245.51,139.69 132.8,52.55 347.94,81.99 560.69,-5.81 157.27,-73.28 237.86,111.68 107.68,177.12zm-18.34 273.2c-66.41,124.83 -247.48,474.57 -703.55,561.18 -217.11,41.19 -468.08,21.75 -809.63,-116.14 -32,-8.87 -54.35,-19.96 -80.03,-30.27 -16.62,-2.41 -28.33,-5.73 -40.78,-14.18 15.35,4.26 28.5,9.13 40.78,14.18 17.49,2.47 40.45,3.82 76.03,8.87 120.9,44.44 367.98,42.39 737.18,-27.74l43.47 -8.28c456.07,-86.67 661.82,-306.21 732.38,-409.11 17.25,-26.1 35.16,-51.88 35.16,-51.88 0,0 -17.91,25.78 -31.01,73.37zm-1655.66 404.7c0,0 0.09,0 4.78,-0.94l-4.78 0.94zm546.93 -703.24c116.42,194.96 342.06,249.83 551.96,258.02 210.34,8.52 404.96,-30.03 444.06,-68.78 -116.86,116.31 -249.66,185.75 -397.53,209.14 -311.69,76.87 -638.02,-48.05 -598.49,-398.38zm2858.52 -380.01c-59.85,-237.54 -207.72,-347.69 -453.67,-383.95 -28.17,-4.19 -56.79,-0.68 -85.4,-0.94 -399.72,24.66 -575.77,450.67 -575.77,450.67 -141.97,-87.21 -485.77,-188.23 -656.8,-188.23 -376.12,0 -387.26,94.97 -558.51,93.09 -114.23,-1.2 -181.94,-5.64 -295.53,-64.15 -312.04,-174.24 -537.54,-433.71 -593.17,-548.64 -59.04,170.74 -60.59,313.48 51.96,457.16 84.38,115.35 -5.54,133.61 -106.39,92.5 -170.48,-87.8 -379.95,-273.38 -487.63,-211.95 -107.58,61.35 430.03,497.85 353.93,526.7 -57.09,-0.7 -135.25,-11.86 -220.3,-69.54 -141.65,-87.28 -311.34,-231.55 -395.57,-375.17 -59.04,198.99 109.74,588.72 448.71,747.01 68.35,31.89 230.96,72.85 200.51,218.43 -15.02,71.75 -135.66,118.4 -200.07,117.73 -222.18,0 -278.32,-25.6 -391.81,-84.38 -56.81,-29.01 -142.57,-1.53 -86.61,113.56 54.96,171.83 192.24,307.32 519.61,634.72 238.65,238.63 444.45,320.97 444.45,320.97 0,0 348.8,141.13 633.63,172.78 370.88,32.58 736.09,6.13 798.34,-8.2 534.92,-123.45 809.26,-287.27 1083.6,-825.75 55.7,-109.45 224.54,-400.74 279.8,-504.75 192,-362.11 383.99,-318.25 292.69,-679.67z"></path> </g> </svg> 