            <svg xmlns="http://www.w3.org/2000/svg" width="181" height="45" viewBox="0 0 181 45" fill="none">
                <path fill-rule="evenodd" clip-rule="evenodd" d="M22.8346 17.0794C25.9026 17.0794 28.6751 18.3522 30.6662 20.404L34.3279 17.2364C31.4493 14.1459 27.3655 12.2153 22.8346 12.2153C14.1179 12.2153 7.05185 19.3565 7.05185 28.1644C7.05185 36.9731 14.1179 44.1135 22.8346 44.1135C30.2379 44.1135 36.4499 38.9604 38.1535 32.0104H39.9606V27.9382H26.905L23.9685 30.4175L23.954 32.0104H33.1251C31.5777 36.2366 27.5544 39.2495 22.8346 39.2495C16.7761 39.2495 11.8652 34.287 11.8652 28.1645C11.8652 22.0428 16.7761 17.0795 22.8346 17.0795V17.0794Z" fill="#FF0009" />
                <path fill-rule="evenodd" clip-rule="evenodd" d="M0 43.3226C3.58229 42.8359 7.09028 42.0838 10.0741 39.4765C25.0361 26.318 39.9976 13.1589 54.9601 0C56.5641 0.0377822 58.1685 0.0755645 59.773 0.113347C55.2584 12.8198 50.7437 25.5262 46.229 38.2323C44.9232 41.3999 45.7064 43.0589 48.5796 43.2092C48.5796 43.5862 48.5796 43.9633 48.5796 44.3403C41.9383 44.3403 35.2965 44.3403 28.6551 44.3403C28.6925 43.9633 28.7299 43.5862 28.7673 43.2092C31.8082 43.134 34.3824 42.3049 35.9309 39.8158L38.843 32.4264L40.3306 32.4435L40.6155 27.9378L47.6843 9.95415C47.2483 9.98404 46.5784 10.0434 46.1172 10.0671C35.2965 19.9082 24.4761 29.7489 13.6561 39.5895C12.6479 41.3247 12.9458 42.6824 16.1185 43.2092C16.1555 43.5107 16.1929 43.8126 16.2307 44.1143C10.8219 44.2343 5.41374 44.3539 0.00547431 44.4743C0.00349424 44.0903 0.00163065 43.7062 0.000116475 43.3226H0Z" fill="#FF0009" />
                <path fill-rule="evenodd" clip-rule="evenodd" d="M68.6228 14.2482C68.6158 14.6864 68.6213 14.9966 68.6408 15.1793C68.661 15.3624 68.7499 15.5197 68.9064 15.6494C69.0629 15.7791 69.3297 15.8472 69.7039 15.8555L69.5605 16.2745H64.8636L65.0068 15.8555C65.4219 15.843 65.7176 15.7939 65.8938 15.7091C66.0679 15.6237 66.1904 15.4817 66.2587 15.2813C66.325 15.0882 66.3582 14.8413 66.3542 14.5395L66.3874 13.0342H62.9732L62.4039 13.8381C62.0578 14.3268 61.8466 14.684 61.7687 14.9119C61.6659 15.2113 61.7044 15.4387 61.8855 15.5942C62.0651 15.7472 62.321 15.8344 62.6505 15.8555L62.5072 16.2745H58.946L59.0893 15.8555C59.523 15.7496 59.8852 15.6089 60.1777 15.4326C60.4703 15.256 60.7185 15.0521 60.9265 14.8222C61.1346 14.5928 61.394 14.2652 61.7065 13.8401L66.5874 7.2063L68.748 6.60449L68.6227 14.2483L68.6228 14.2482ZM66.4383 8.33953L63.446 12.4347H66.3781L66.4383 8.33953ZM70.1728 16.2745L70.3162 15.8555C70.6465 15.8555 70.9155 15.8196 71.1279 15.7472C71.3368 15.6772 71.5122 15.5559 71.6533 15.3857C71.7932 15.2179 71.9141 14.9819 72.0174 14.6801L74.1214 8.5308C74.2748 8.08212 74.286 7.77598 74.1538 7.60813C74.0236 7.44017 73.7138 7.35496 73.225 7.35496L73.3684 6.93629H78.2283C79.3036 6.93629 80.1169 7.0321 80.668 7.22101C81.221 7.4104 81.5609 7.66345 81.6859 7.97619C81.8127 8.29057 81.8026 8.6585 81.6589 9.07964C81.4557 9.67274 81.0414 10.1468 80.4148 10.4977C79.7898 10.8506 79.1013 11.0952 78.3506 11.2358L78.3425 11.2592C78.8885 11.3719 79.3499 11.5163 79.7203 11.6927C80.093 11.8692 80.362 12.1265 80.5243 12.4665C80.6869 12.8069 80.6746 13.247 80.4899 13.7872C80.222 14.5696 79.7033 15.1795 78.9309 15.6176C78.1581 16.0558 77.1417 16.2746 75.8765 16.2746H70.1727L70.1728 16.2745ZM74.3526 14.2716C74.2016 14.714 74.1136 15.0349 74.088 15.2347C74.0613 15.4368 74.1249 15.59 74.2783 15.6962C74.4337 15.8025 74.7282 15.8555 75.1653 15.8555C75.8682 15.8555 76.4887 15.6728 77.0238 15.309C77.5586 14.9457 77.959 14.376 78.2258 13.5954C78.3707 13.1725 78.4192 12.8153 78.3715 12.5239C78.324 12.2328 78.1193 12.0029 77.7556 11.833C77.3936 11.6648 76.8248 11.58 76.0482 11.58H75.2738L74.3528 14.2716H74.3526ZM76.2396 10.9802C77.0899 10.9802 77.7582 10.8337 78.246 10.5423C78.7339 10.2511 79.0912 9.77467 79.3167 9.11577C79.4624 8.6904 79.4951 8.34577 79.4173 8.08447C79.3395 7.8227 79.1648 7.63579 78.8931 7.52327C78.6237 7.41028 78.2633 7.35496 77.8171 7.35496C77.362 7.35496 77.0219 7.43594 76.7969 7.59766C76.6461 7.72501 76.5141 7.95477 76.4007 8.28668L75.4788 10.9802H76.2396ZM91.2987 6.93629L91.1479 9.48971L90.611 9.61742C90.1274 8.16086 89.3364 7.43382 88.2365 7.43382L85.7564 14.6821C85.6481 14.9987 85.6046 15.2372 85.6251 15.3987C85.6438 15.5581 85.7372 15.6711 85.899 15.7387C86.0609 15.8069 86.3133 15.845 86.6556 15.8556L86.5122 16.2746H81.7148L81.8582 15.8556C82.3645 15.8431 82.736 15.7558 82.9742 15.5943C83.2123 15.4327 83.4078 15.1284 83.5608 14.6821L86.0404 7.43382C85.4562 7.43382 84.8291 7.64215 84.1612 8.06117C83.4959 8.47983 82.8431 8.99866 82.2028 9.61742L81.7511 9.48971L83.2808 6.93629H91.2984H91.2987ZM90.3657 11.7077C90.5977 11.0293 90.9287 10.3871 91.3577 9.77902C91.787 9.17109 92.2908 8.6372 92.8681 8.17593C93.4462 7.71242 94.0803 7.35307 94.767 7.09366C95.4531 6.83613 96.158 6.70642 96.8829 6.70642C97.6241 6.70642 98.2577 6.82365 98.7853 7.05541C99.3129 7.28728 99.7172 7.61861 99.9966 8.04822C100.274 8.47548 100.426 8.98607 100.449 9.57681C100.471 10.1699 100.364 10.8146 100.124 11.5161C99.9038 12.1602 99.5793 12.7834 99.153 13.3828C98.7279 13.9803 98.2207 14.5162 97.631 14.9881C97.0417 15.4582 96.3947 15.8303 95.6886 16.1001C94.9825 16.3704 94.2606 16.5044 93.5196 16.5044C92.8011 16.5044 92.1876 16.3871 91.6753 16.1554C91.1634 15.9236 90.7689 15.59 90.4949 15.1583C90.2194 14.7245 90.0675 14.2163 90.0443 13.6316C90.0188 13.047 90.1272 12.4048 90.3658 11.7077H90.3657ZM92.7343 11.5928C91.7276 14.5352 92.0229 16.0066 93.6208 16.0066C94.1942 16.0066 94.7076 15.8683 95.1639 15.5922C95.6199 15.3157 96.0123 14.9585 96.339 14.5185C96.6658 14.0783 96.94 13.6169 97.1576 13.1362C97.3777 12.6557 97.5793 12.1454 97.7638 11.6053C98.7678 8.67145 98.4445 7.2043 96.793 7.2043C95.9876 7.2043 95.2376 7.56341 94.5431 8.28245C93.8465 9.00102 93.2434 10.1044 92.7343 11.5929V11.5928ZM110.105 6.93629L109.954 9.48971L109.417 9.61742C108.933 8.16086 108.142 7.43382 107.043 7.43382L104.562 14.6821C104.454 14.9987 104.411 15.2372 104.431 15.3987C104.45 15.5581 104.543 15.6711 104.705 15.7387C104.867 15.8069 105.119 15.845 105.462 15.8556L105.319 16.2746H100.521L100.664 15.8556C101.171 15.8431 101.542 15.7558 101.78 15.5943C102.018 15.4327 102.214 15.1284 102.367 14.6821L104.847 7.43382C104.262 7.43382 103.635 7.64215 102.968 8.06117C102.302 8.47983 101.649 8.99866 101.009 9.61742L100.557 9.48971L102.087 6.93629H110.104H110.105ZM107.955 15.8555C108.286 15.8555 108.555 15.8196 108.767 15.7472C108.977 15.6747 109.151 15.5559 109.292 15.3857C109.432 15.2179 109.553 14.9819 109.657 14.6801L111.76 8.53303C111.912 8.08636 111.924 7.77833 111.792 7.61037C111.662 7.44217 111.351 7.3592 110.862 7.3592L111.007 6.93629H119.08L119.107 9.32411L118.635 9.48971C118.453 9.10295 118.215 8.75443 117.921 8.44593C117.628 8.13544 117.274 7.89085 116.864 7.70818C116.451 7.52515 116.005 7.4337 115.525 7.4337C115.141 7.4337 114.849 7.47843 114.65 7.56564C114.453 7.65298 114.305 7.77833 114.211 7.94617C114.117 8.11213 114.006 8.38438 113.877 8.76043L113.026 11.2481H113.294C113.769 11.2481 114.161 11.2099 114.473 11.1354C114.784 11.061 115.074 10.9166 115.343 10.7039C115.613 10.489 115.894 10.1699 116.191 9.74513H116.713L115.453 13.4299H114.931C114.954 13.0022 114.907 12.6746 114.791 12.4496C114.672 12.2222 114.48 12.0668 114.212 11.9795C113.948 11.8922 113.582 11.8479 113.115 11.8479H112.821L111.9 14.5395C111.752 14.971 111.709 15.2857 111.769 15.4834C111.829 15.6789 112.077 15.7772 112.509 15.7772C113.034 15.7772 113.584 15.6876 114.156 15.5112C114.727 15.3348 115.287 15.0925 115.837 14.784C116.387 14.4756 116.907 14.1227 117.401 13.7232L117.701 13.9016L115.885 16.2746H107.811L107.955 15.8556L107.955 15.8555ZM124.751 6.93629L124.608 7.35496C124.259 7.37202 124.025 7.41028 123.905 7.46795C123.782 7.52763 123.698 7.62296 123.654 7.75079C123.613 7.8719 123.63 8.04198 123.705 8.26091L123.774 8.48831L124.438 10.2787L126.183 8.73301C126.566 8.39485 126.788 8.13991 126.846 7.96971C126.986 7.55917 126.73 7.35508 126.079 7.35508L126.222 6.93641H129.743L129.6 7.35508C129.166 7.37214 128.781 7.4656 128.442 7.63591C128.105 7.80611 127.73 8.07411 127.316 8.43981L124.627 10.8148L125.979 14.2975C126.118 14.6632 126.228 14.9354 126.31 15.1119C126.392 15.2903 126.52 15.4561 126.698 15.6073C126.878 15.7603 127.106 15.8432 127.388 15.8557L127.244 16.2747H122.505L122.648 15.8557C123.255 15.8046 123.605 15.6496 123.692 15.3946C123.728 15.2883 123.732 15.1862 123.707 15.0885C123.682 14.9927 123.639 14.863 123.577 14.7058L122.728 12.4605L120.827 14.0954C120.58 14.3103 120.384 14.4911 120.242 14.64C120.099 14.7908 120 14.948 119.943 15.1139C119.801 15.5306 120.069 15.7776 120.747 15.8558L120.604 16.2749H116.975L117.119 15.8558C117.608 15.7752 118.053 15.6093 118.452 15.3628C118.852 15.1139 119.311 14.763 119.828 14.3103L122.522 11.9225L121.214 8.42698C121.087 8.1252 120.996 7.9211 120.938 7.81246C120.878 7.70618 120.777 7.60837 120.638 7.52115C120.498 7.43394 120.294 7.37862 120.027 7.35519L120.171 6.93653H124.752L124.751 6.93629ZM135.189 16.2746H127.504L127.648 15.8536C127.979 15.8536 128.247 15.8175 128.459 15.7473C128.669 15.6748 128.844 15.5538 128.984 15.3859C129.125 15.2157 129.246 14.9797 129.348 14.6802L131.453 8.52891C131.606 8.08224 131.617 7.77609 131.485 7.60825C131.355 7.44029 131.044 7.35508 130.556 7.35508L130.699 6.93641H135.479L135.336 7.35508C134.858 7.35508 134.494 7.44041 134.246 7.61061C133.999 7.78045 133.8 8.08647 133.649 8.52891L131.544 14.6802C131.446 14.965 131.388 15.1756 131.368 15.3115C131.346 15.4473 131.366 15.5451 131.426 15.6047C131.484 15.6643 131.585 15.7024 131.729 15.7177C131.873 15.7325 132.124 15.7387 132.478 15.7387H133.469C133.92 15.7387 134.231 15.724 134.397 15.692C134.567 15.6601 134.698 15.577 134.793 15.4431C134.891 15.3072 135.002 15.0539 135.13 14.6802L137.235 8.52891C137.339 8.22477 137.379 7.98878 137.359 7.82094C137.336 7.6531 137.243 7.53386 137.079 7.46383C136.917 7.39133 136.668 7.35519 136.335 7.35519L136.479 6.93653H141.276L141.133 7.35519C140.644 7.35519 140.276 7.44053 140.029 7.60837C139.781 7.77857 139.582 8.08459 139.43 8.52903L137.326 14.6804C137.223 14.9798 137.185 15.2158 137.209 15.386C137.234 15.5539 137.327 15.6749 137.489 15.7474C137.653 15.8176 137.897 15.8537 138.225 15.8537L138.102 18.3265L137.56 18.4542C137.448 18.1052 137.284 17.763 137.068 17.429C136.855 17.0934 136.588 16.8169 136.269 16.5998C135.948 16.3829 135.588 16.2746 135.189 16.2746H135.189ZM139.368 15.8556C139.698 15.8556 139.967 15.8197 140.179 15.7473C140.389 15.6748 140.564 15.5561 140.704 15.3859C140.845 15.218 140.965 14.982 141.069 14.6802L143.172 8.53315C143.325 8.08647 143.336 7.77845 143.204 7.61049C143.074 7.44229 142.764 7.35931 142.275 7.35931L142.419 6.93641H150.493L150.519 9.32422L150.047 9.48983C149.865 9.10306 149.628 8.75455 149.334 8.44605C149.04 8.13555 148.687 7.89097 148.276 7.7083C147.864 7.52527 147.417 7.43382 146.938 7.43382C146.554 7.43382 146.262 7.47854 146.062 7.56576C145.865 7.6531 145.717 7.77845 145.624 7.94629C145.53 8.11225 145.419 8.38449 145.29 8.76055L144.438 11.2482H144.706C145.182 11.2482 145.574 11.21 145.885 11.1355C146.196 11.0611 146.487 10.9167 146.756 10.704C147.026 10.4891 147.307 10.17 147.604 9.74524H148.126L146.865 13.43H146.343C146.367 13.0023 146.32 12.6747 146.203 12.4497C146.084 12.2223 145.892 12.0669 145.625 11.9796C145.361 11.8924 144.994 11.848 144.528 11.848H144.233L143.312 14.5396C143.165 14.9711 143.122 15.2858 143.181 15.4836C143.241 15.6791 143.489 15.7773 143.922 15.7773C144.447 15.7773 144.997 15.6878 145.568 15.5113C146.139 15.3349 146.7 15.0927 147.249 14.7842C147.799 14.4757 148.319 14.1228 148.813 13.7233L149.113 13.9018L147.297 16.2747H139.224L139.367 15.8557L139.368 15.8556ZM158.066 11.1847L158.975 8.5288C159.077 8.22889 159.116 7.9929 159.091 7.82506C159.066 7.65486 158.974 7.53375 158.81 7.4636C158.648 7.39109 158.401 7.35496 158.075 7.35496L158.219 6.93629H163.016L162.873 7.35496C162.384 7.35496 162.016 7.44029 161.769 7.60813C161.521 7.77833 161.322 8.08435 161.17 8.5308L159.066 14.6801C158.963 14.9819 158.924 15.2179 158.95 15.3857C158.974 15.5559 159.066 15.6771 159.23 15.7472C159.392 15.8197 159.639 15.8555 159.965 15.8555L159.821 16.2745H155.024L155.167 15.8555C155.651 15.8555 156.017 15.7705 156.267 15.6028C156.517 15.4326 156.718 15.1263 156.87 14.682L157.861 11.784H154.275L153.284 14.682C153.181 14.9819 153.141 15.2179 153.166 15.3857C153.19 15.5559 153.283 15.6771 153.444 15.7472C153.606 15.8197 153.851 15.8555 154.181 15.8555L154.038 16.2745H149.245L149.388 15.8555C149.718 15.8555 149.987 15.8196 150.199 15.7472C150.409 15.6772 150.584 15.5559 150.725 15.3857C150.865 15.2179 150.986 14.9819 151.089 14.6801L153.193 8.5308C153.346 8.08212 153.358 7.77598 153.225 7.60813C153.095 7.44017 152.785 7.35496 152.296 7.35496L152.44 6.93629H157.233L157.089 7.35496C156.601 7.35496 156.233 7.44029 155.988 7.60813C155.74 7.77833 155.541 8.08435 155.389 8.5288L154.481 11.1847H158.067H158.066ZM171.843 6.93629L171.692 9.48971L171.155 9.61742C170.672 8.16086 169.88 7.43382 168.781 7.43382L166.3 14.6821C166.192 14.9987 166.149 15.2372 166.169 15.3987C166.188 15.5581 166.281 15.6711 166.443 15.7387C166.605 15.8069 166.858 15.845 167.2 15.8556L167.057 16.2746H162.259L162.402 15.8556C162.909 15.8431 163.28 15.7558 163.518 15.5943C163.756 15.4327 163.952 15.1284 164.105 14.6821L166.585 7.43382C166 7.43382 165.373 7.64215 164.706 8.06117C164.04 8.47983 163.387 8.99866 162.747 9.61742L162.295 9.48971L163.825 6.93629H171.842H171.843ZM174.54 11.988L173.619 14.6801C173.516 14.9819 173.478 15.2179 173.503 15.3857C173.527 15.5559 173.619 15.6771 173.783 15.7472C173.946 15.8197 174.192 15.8555 174.518 15.8555L174.375 16.2745H169.577L169.72 15.8555C170.204 15.8555 170.571 15.7705 170.82 15.6028C171.07 15.4326 171.271 15.1263 171.423 14.682L173.527 8.53303C173.63 8.23125 173.668 7.99714 173.643 7.82694C173.618 7.6591 173.526 7.53798 173.363 7.46548C173.199 7.39545 172.953 7.3592 172.628 7.3592L172.772 6.93629H177.592C178.31 6.93629 178.915 7.00209 179.404 7.13603C179.892 7.26998 180.263 7.45077 180.513 7.67828C180.766 7.90568 180.917 8.16733 180.972 8.463C181.028 8.7562 180.999 9.06893 180.887 9.39626C180.697 9.95358 180.414 10.4085 180.042 10.7594C179.667 11.1122 179.239 11.3759 178.759 11.5523C178.28 11.7288 177.791 11.8455 177.294 11.9033C176.797 11.9605 176.263 11.988 175.694 11.988H174.54H174.54ZM174.71 11.4908H175.5C176.313 11.4908 176.961 11.3312 177.441 11.0145C177.925 10.6974 178.294 10.1663 178.548 9.42392C179.002 8.0973 178.546 7.43382 177.183 7.43382C176.837 7.43382 176.572 7.47654 176.39 7.55917C176.207 7.64462 176.072 7.76562 175.981 7.92722C175.892 8.08883 175.786 8.34589 175.666 8.69911L174.71 11.4909V11.4908Z" fill="white" />
                <path fill-rule="evenodd" clip-rule="evenodd" d="M75.2996 32.0502L77.434 25.629C77.6748 24.9041 77.7554 24.3336 77.6783 23.9275C77.6024 23.5161 77.3557 23.2229 76.9299 23.0535C76.5059 22.8786 75.8692 22.7914 75.0313 22.7914L75.3678 21.7783H87.7074L87.3709 22.7914C86.1138 22.7914 85.1732 22.997 84.5501 23.4029C83.9258 23.8142 83.4386 24.5545 83.0797 25.6341L78.1381 40.5021C77.8952 41.2323 77.8147 41.8029 77.8922 42.2091C77.9676 42.6205 78.2147 42.9133 78.6406 43.0832C79.0646 43.258 79.7013 43.3452 80.5392 43.3452L80.2027 44.3579H67.8631L68.1995 43.3452C69.4447 43.3452 70.3798 43.1396 71.0085 42.7334C71.639 42.322 72.1319 41.5818 72.4889 40.5072L74.8178 33.5001H65.5947L63.2656 40.5072C63.0248 41.2323 62.9385 41.8028 63.0159 42.209C63.0915 42.6204 63.3385 42.9132 63.7587 43.0831C64.1826 43.2578 64.8136 43.3451 65.6629 43.3451L65.3261 44.3578H52.998L53.3349 43.3451C54.1843 43.3451 54.8734 43.2578 55.4134 43.0831C55.946 42.9132 56.388 42.6204 56.7368 42.209C57.0844 41.8028 57.3774 41.2322 57.6198 40.502L62.5614 25.634C62.9223 24.5494 62.9272 23.8089 62.5742 23.4027C62.2273 22.9969 61.4234 22.7913 60.1662 22.7913L60.5031 21.7782H72.8311L72.4947 22.7913C71.2375 22.7913 70.2967 22.9969 69.6797 23.4027C69.0554 23.8141 68.5681 24.5543 68.2109 25.629L66.0769 32.0502H75.2997H75.2996ZM106.591 29.3306L110.103 40.1064C110.355 40.9032 110.591 41.4894 110.81 41.8645C111.03 42.24 111.365 42.5434 111.815 42.7797C112.258 43.0162 112.924 43.2066 113.808 43.3452L113.471 44.3579H100.907L101.244 43.3452C102.234 43.304 102.92 43.191 103.31 43.001C103.698 42.8156 103.95 42.5586 104.06 42.2295C104.149 41.9623 104.093 41.4738 103.896 40.7541L101.476 32.909L97.8626 35.4742L96.1915 40.5022C95.8577 41.5924 95.87 42.3322 96.2172 42.7385C96.5699 43.1447 97.37 43.3452 98.6269 43.3452L98.2905 44.3579H85.9166L86.253 43.3452C87.4982 43.3452 88.4333 43.1396 89.0617 42.7334C89.6923 42.322 90.1849 41.5818 90.5441 40.5021L95.4858 25.6341C95.7283 24.9043 95.8088 24.3336 95.7318 23.9275C95.6558 23.5161 95.4091 23.2229 94.9833 23.0535C94.5593 22.8786 93.9226 22.7914 93.0848 22.7914L93.4212 21.7783H105.761L105.424 22.7914C104.167 22.7914 103.226 22.997 102.604 23.4029C101.979 23.8142 101.492 24.5545 101.135 25.6291L98.5702 33.3461L107.307 27.1764C108.243 26.5187 109.01 25.9375 109.615 25.4285C110.215 24.9194 110.595 24.4311 110.749 23.9683C110.843 23.6856 110.835 23.4698 110.72 23.3156C110.604 23.1613 110.422 23.0535 110.176 22.9814C109.923 22.9144 109.656 22.8736 109.364 22.8528C109.072 22.8321 108.792 22.8115 108.518 22.7913L108.855 21.7782H119.466L119.13 22.7913C117.955 22.9762 116.985 23.1819 116.206 23.4027C115.425 23.629 114.64 23.953 113.846 24.3744C113.055 24.8013 112.106 25.4132 110.994 26.2201L106.591 29.3303L106.591 29.3306ZM141.945 39.4587C141.961 40.5176 141.998 41.2682 142.064 41.7103C142.129 42.1523 142.37 42.5328 142.782 42.8467C143.194 43.1603 143.886 43.3247 144.849 43.3452L144.513 44.3579H132.431L132.767 43.3452C133.834 43.3145 134.591 43.196 135.038 42.9904C135.479 42.7848 135.783 42.4405 135.944 41.9572C136.099 41.4894 136.165 40.8927 136.133 40.163L136.103 36.523H127.322L125.918 38.4664C125.066 39.6489 124.549 40.5127 124.366 41.0627C124.126 41.7875 124.241 42.3378 124.719 42.7128C125.193 43.0832 125.857 43.294 126.707 43.3452L126.37 44.3579H117.21L117.547 43.3452C118.654 43.0881 119.576 42.7489 120.315 42.3221C121.053 41.8952 121.677 41.4018 122.194 40.8468C122.712 40.2914 123.354 39.4996 124.126 38.4715L136.172 22.4316L141.683 20.9766L141.945 39.4588L141.945 39.4587ZM135.875 25.1713L128.492 35.0732H136.033L135.875 25.1713ZM162.757 33.9937L160.593 40.5021C160.35 41.2323 160.27 41.8029 160.347 42.2091C160.423 42.6205 160.67 42.9133 161.095 43.0832C161.519 43.258 162.156 43.3452 162.994 43.3452L162.657 44.3579H150.318L150.655 43.3452C151.9 43.3452 152.835 43.1396 153.463 42.7334C154.094 42.322 154.587 41.5818 154.944 40.5072L159.886 25.6392C160.128 24.9093 160.207 24.3438 160.132 23.9325C160.054 23.5263 159.807 23.2334 159.383 23.0585C158.957 22.8887 158.321 22.8014 157.483 22.8014L157.823 21.7783H170.22C172.068 21.7783 173.628 21.9376 174.897 22.2616C176.161 22.5853 177.13 23.0227 177.79 23.5726C178.457 24.1225 178.867 24.755 179.031 25.4696C179.197 26.1789 179.147 26.9347 178.884 27.7266C178.436 29.0734 177.743 30.1737 176.812 31.0219C175.875 31.8753 174.796 32.5129 173.575 32.9398C172.354 33.3662 171.107 33.6489 169.833 33.7879C168.558 33.9267 167.187 33.9937 165.723 33.9937H162.757ZM163.156 32.7906H165.188C167.277 32.7906 168.932 32.4049 170.145 31.6389C171.364 30.8728 172.273 29.5876 172.869 27.7933C173.936 24.5852 172.713 22.9814 169.206 22.9814C168.316 22.9814 167.639 23.0842 167.177 23.2848C166.712 23.4904 166.374 23.7833 166.152 24.1739C165.936 24.5649 165.683 25.187 165.4 26.0402L163.156 32.7905V32.7906Z" fill="#FF0009" />
            </svg>