<svg xmlns="http://www.w3.org/2000/svg" width="252" height="58" viewBox="0 0 252 58" fill="none">
    <g clip-path="url(#clip0_1_5598)">
        <path d="M17.9656 0L0 58L149.339 57.8402L167.305 0H17.9656ZM20.0509 43.6198L29.1941 14.0606H36.8937L27.7505 43.6198H20.0509ZM88.3845 43.6198H84.3743H80.6849H53.4157H49.4055L35.45 28.7603L49.7263 14.0606H59.5111L45.0745 28.9201L53.0948 36.9091H82.9306L85.8179 27.6419L81.8078 20.7714H70.2584L66.7295 31.7961H59.0299L64.6442 14.2204H70.2584H72.3437H86.2992L93.5175 27.1625L88.3845 43.6198ZM137.148 43.6198H129.449L136.186 22.0496L119.664 43.6198H111.483L107.954 22.0496L101.377 43.4601H93.6779L102.982 13.5813H114.21L117.418 35.1515L133.619 13.9008H146.452L137.148 43.6198Z" fill="#E66339"/>
        <path d="M250.557 23.9684V10.5469H241.414H241.253V10.8664C241.253 11.3458 239.489 20.9325 239.007 22.2108C238.687 23.3292 237.243 23.9684 236.441 23.9684H236.12V29.2411H239.168V26.5248H248.953V29.2411H252V23.9684H250.557ZM247.349 13.2631V23.9684H241.414C241.734 23.489 242.055 22.6901 242.216 21.7314C242.376 20.613 243.338 15.9794 243.98 13.2631H247.349Z" fill="#E66339"/>
        <path d="M207.568 45.6969V32.2754H198.424H198.264V32.5949C198.264 33.0743 196.499 42.6611 196.018 43.9393C195.697 45.0578 194.254 45.6969 193.452 45.6969H193.131V50.9696H196.179V48.2534H205.963V50.9696H209.011V45.6969H207.568ZM204.52 34.8319V45.5371H198.585C198.906 45.0578 199.226 44.2589 199.387 43.3002C199.547 42.1817 200.51 37.5481 201.151 34.8319H204.52Z" fill="#E66339"/>
        <path d="M185.431 39.9448L191.848 32.2754H187.998L182.704 38.6666H181.421V32.2754H178.213V48.2534H181.421V41.223H182.544L188.479 48.2534H192.489L185.431 39.9448Z" fill="#E66339"/>
        <path d="M225.694 32.2754L220.24 44.2589L214.946 32.2754H211.738V48.2534H214.786V38.9861L218.796 48.2534H221.363L225.694 38.8264V48.2534H228.902V32.2754H225.694Z" fill="#E66339"/>
        <path d="M187.998 19.1742C187.677 18.8547 187.356 18.3753 186.875 18.2155C187.196 18.0558 187.356 17.7362 187.677 17.4166C188.158 16.7775 188.479 15.8188 188.479 14.8602C188.479 14.0613 188.319 13.2624 187.837 12.4635C187.356 11.8244 186.715 11.1852 185.912 10.8657C185.11 10.5461 184.308 10.2266 183.346 10.2266C182.063 10.2266 180.94 10.5461 180.138 11.1852C179.175 11.8244 178.534 12.6233 178.053 13.7417L177.571 14.3808L180.138 15.8188L180.459 15.1797C180.779 14.3808 181.261 13.9015 181.742 13.5819C182.223 13.2624 182.704 13.1026 183.346 13.1026C183.988 13.1026 184.629 13.2624 184.95 13.5819C185.271 13.9015 185.592 14.3808 185.592 14.8602C185.592 15.4993 185.431 15.9786 184.95 16.2982C184.469 16.6177 183.988 16.7775 183.186 16.7775H181.581V19.4938H183.346C184.148 19.4938 184.79 19.6536 185.271 20.1329C185.752 20.6122 185.912 21.0916 185.912 21.8905C185.912 22.6894 185.752 23.1687 185.271 23.4883C184.79 23.9676 184.148 24.1274 183.506 24.1274C182.704 24.1274 182.223 23.9676 181.742 23.4883C181.261 23.0089 180.779 22.5296 180.298 21.7307L179.977 21.0916L177.571 22.5296L177.892 23.1687C179.015 25.7252 180.94 27.0034 183.667 27.0034C184.629 27.0034 185.592 26.8436 186.394 26.3643C187.196 25.885 187.837 25.4056 188.479 24.6067C188.96 23.8078 189.281 23.0089 189.281 22.0503C188.8 20.9318 188.639 19.9731 187.998 19.1742Z" fill="#E66339"/>
        <path d="M198.905 10.5469H196.339L190.725 26.5248V26.6846H193.772L195.216 22.5303H200.349L201.793 26.5248H204.84L198.905 10.5469ZM199.226 19.8141H196.018L197.622 15.5L199.226 19.8141Z" fill="#E66339"/>
        <path d="M217.994 19.0136C217.673 18.6941 217.352 18.3745 216.871 18.0549C217.031 17.8952 217.192 17.5756 217.352 17.4158C217.673 16.7767 217.994 15.9778 217.994 15.1789C217.994 13.9007 217.513 12.7822 216.711 11.9833C215.909 11.1844 214.625 10.7051 213.182 10.7051H206.926V26.8428H213.502C215.107 26.8428 216.39 26.3635 217.192 25.5646C218.154 24.6059 218.636 23.4874 218.636 22.0494C218.796 20.6114 218.475 19.6527 217.994 19.0136ZM213.342 16.9365H209.974V13.4213H213.021C213.663 13.4213 214.144 13.5811 214.465 13.9007C214.786 14.2202 214.946 14.5398 214.946 15.1789C214.946 16.2974 214.465 16.9365 213.342 16.9365ZM209.974 19.6527H213.342C214.144 19.6527 214.625 19.8125 215.107 20.2919C215.427 20.6114 215.748 21.2505 215.748 21.8897C215.748 22.5288 215.588 23.1679 215.107 23.4874C214.786 23.807 214.144 24.1266 213.342 24.1266H209.974V19.6527Z" fill="#E66339"/>
        <path d="M234.837 14.3808C234.195 13.1026 233.393 12.1439 232.271 11.345C231.148 10.5461 229.864 10.2266 228.421 10.2266C226.977 10.2266 225.694 10.5461 224.571 11.345C223.448 12.1439 222.646 13.1026 222.004 14.3808C221.363 15.6591 221.042 17.0971 221.042 18.6949C221.042 20.2927 221.363 21.7307 222.004 23.0089C222.646 24.2872 223.448 25.2458 224.571 26.0447C225.694 26.8436 226.977 27.1632 228.421 27.1632C229.864 27.1632 231.148 26.8436 232.271 26.0447C233.393 25.2458 234.195 24.2872 234.837 23.0089C235.479 21.7307 235.799 20.2927 235.799 18.6949C235.799 17.0971 235.479 15.6591 234.837 14.3808ZM230.506 23.4883C229.864 23.9676 229.223 24.1274 228.421 24.1274C227.619 24.1274 226.977 23.9676 226.335 23.4883C225.694 23.0089 225.213 22.3698 224.892 21.5709C224.571 20.772 224.25 19.8133 224.25 18.6949C224.25 17.5764 224.411 16.6177 224.892 15.8188C225.213 15.02 225.694 14.3808 226.335 13.9015C226.977 13.4222 227.619 13.2624 228.421 13.2624C229.223 13.2624 229.864 13.4222 230.506 13.9015C231.148 14.3808 231.629 15.02 231.95 15.8188C232.271 16.6177 232.591 17.7362 232.591 18.6949C232.591 19.8133 232.431 20.772 231.95 21.5709C231.629 22.3698 231.148 23.0089 230.506 23.4883Z" fill="#E66339"/>
        <mask id="mask0_1_5598" style="mask-type:alpha" maskUnits="userSpaceOnUse" x="0" y="0" width="252" height="58">
            <g clip-path="url(#clip1_1_5598)">
                <path d="M17.9656 0L0 58L149.339 57.8402L167.305 0H17.9656ZM20.0509 43.6198L29.1941 14.0606H36.8937L27.7505 43.6198H20.0509ZM88.3845 43.6198H84.3743H80.6849H53.4157H49.4055L35.45 28.7603L49.7263 14.0606H59.5111L45.0745 28.9201L53.0948 36.9091H82.9306L85.8179 27.6419L81.8078 20.7714H70.2584L66.7295 31.7961H59.0299L64.6442 14.2204H70.2584H72.3437H86.2992L93.5175 27.1625L88.3845 43.6198ZM137.148 43.6198H129.449L136.186 22.0496L119.664 43.6198H111.483L107.954 22.0496L101.377 43.4601H93.6779L102.982 13.5813H114.21L117.418 35.1515L133.619 13.9008H146.452L137.148 43.6198Z" fill="#E66339"/>
                <path d="M250.557 23.9684V10.5469H241.414H241.253V10.8664C241.253 11.3458 239.489 20.9325 239.007 22.2108C238.687 23.3292 237.243 23.9684 236.441 23.9684H236.12V29.2411H239.168V26.5248H248.953V29.2411H252V23.9684H250.557ZM247.349 13.2631V23.9684H241.414C241.734 23.489 242.055 22.6901 242.216 21.7314C242.376 20.613 243.338 15.9794 243.98 13.2631H247.349Z" fill="#E66339"/>
                <path d="M207.568 45.6969V32.2754H198.424H198.264V32.5949C198.264 33.0743 196.499 42.6611 196.018 43.9393C195.697 45.0578 194.254 45.6969 193.452 45.6969H193.131V50.9696H196.179V48.2534H205.963V50.9696H209.011V45.6969H207.568ZM204.52 34.8319V45.5371H198.585C198.906 45.0578 199.226 44.2589 199.387 43.3002C199.547 42.1817 200.51 37.5481 201.151 34.8319H204.52Z" fill="#E66339"/>
                <path d="M185.431 39.9448L191.848 32.2754H187.998L182.704 38.6666H181.421V32.2754H178.213V48.2534H181.421V41.223H182.544L188.479 48.2534H192.489L185.431 39.9448Z" fill="#E66339"/>
                <path d="M225.694 32.2754L220.24 44.2589L214.946 32.2754H211.738V48.2534H214.786V38.9861L218.796 48.2534H221.363L225.694 38.8264V48.2534H228.902V32.2754H225.694Z" fill="#E66339"/>
                <path d="M187.998 19.1742C187.677 18.8547 187.356 18.3753 186.875 18.2155C187.196 18.0558 187.356 17.7362 187.677 17.4166C188.158 16.7775 188.479 15.8188 188.479 14.8602C188.479 14.0613 188.319 13.2624 187.837 12.4635C187.356 11.8244 186.715 11.1852 185.912 10.8657C185.11 10.5461 184.308 10.2266 183.346 10.2266C182.063 10.2266 180.94 10.5461 180.138 11.1852C179.175 11.8244 178.534 12.6233 178.053 13.7417L177.571 14.3808L180.138 15.8188L180.459 15.1797C180.779 14.3808 181.261 13.9015 181.742 13.5819C182.223 13.2624 182.704 13.1026 183.346 13.1026C183.988 13.1026 184.629 13.2624 184.95 13.5819C185.271 13.9015 185.592 14.3808 185.592 14.8602C185.592 15.4993 185.431 15.9786 184.95 16.2982C184.469 16.6177 183.988 16.7775 183.186 16.7775H181.581V19.4938H183.346C184.148 19.4938 184.79 19.6536 185.271 20.1329C185.752 20.6122 185.912 21.0916 185.912 21.8905C185.912 22.6894 185.752 23.1687 185.271 23.4883C184.79 23.9676 184.148 24.1274 183.506 24.1274C182.704 24.1274 182.223 23.9676 181.742 23.4883C181.261 23.0089 180.779 22.5296 180.298 21.7307L179.977 21.0916L177.571 22.5296L177.892 23.1687C179.015 25.7252 180.94 27.0034 183.667 27.0034C184.629 27.0034 185.592 26.8436 186.394 26.3643C187.196 25.885 187.837 25.4056 188.479 24.6067C188.96 23.8078 189.281 23.0089 189.281 22.0503C188.8 20.9318 188.639 19.9731 187.998 19.1742Z" fill="#E66339"/>
                <path d="M198.905 10.5469H196.339L190.725 26.5248V26.6846H193.772L195.216 22.5303H200.349L201.793 26.5248H204.84L198.905 10.5469ZM199.226 19.8141H196.018L197.622 15.5L199.226 19.8141Z" fill="#E66339"/>
                <path d="M217.994 19.0136C217.673 18.6941 217.352 18.3745 216.871 18.0549C217.031 17.8952 217.192 17.5756 217.352 17.4158C217.673 16.7767 217.994 15.9778 217.994 15.1789C217.994 13.9007 217.513 12.7822 216.711 11.9833C215.909 11.1844 214.625 10.7051 213.182 10.7051H206.926V26.8428H213.502C215.107 26.8428 216.39 26.3635 217.192 25.5646C218.154 24.6059 218.636 23.4874 218.636 22.0494C218.796 20.6114 218.475 19.6527 217.994 19.0136ZM213.342 16.9365H209.974V13.4213H213.021C213.663 13.4213 214.144 13.5811 214.465 13.9007C214.786 14.2202 214.946 14.5398 214.946 15.1789C214.946 16.2974 214.465 16.9365 213.342 16.9365ZM209.974 19.6527H213.342C214.144 19.6527 214.625 19.8125 215.107 20.2919C215.427 20.6114 215.748 21.2505 215.748 21.8897C215.748 22.5288 215.588 23.1679 215.107 23.4874C214.786 23.807 214.144 24.1266 213.342 24.1266H209.974V19.6527Z" fill="#E66339"/>
                <path d="M234.837 14.3808C234.195 13.1026 233.393 12.1439 232.271 11.345C231.148 10.5461 229.864 10.2266 228.421 10.2266C226.977 10.2266 225.694 10.5461 224.571 11.345C223.448 12.1439 222.646 13.1026 222.004 14.3808C221.363 15.6591 221.042 17.0971 221.042 18.6949C221.042 20.2927 221.363 21.7307 222.004 23.0089C222.646 24.2872 223.448 25.2458 224.571 26.0447C225.694 26.8436 226.977 27.1632 228.421 27.1632C229.864 27.1632 231.148 26.8436 232.271 26.0447C233.393 25.2458 234.195 24.2872 234.837 23.0089C235.479 21.7307 235.799 20.2927 235.799 18.6949C235.799 17.0971 235.479 15.6591 234.837 14.3808ZM230.506 23.4883C229.864 23.9676 229.223 24.1274 228.421 24.1274C227.619 24.1274 226.977 23.9676 226.335 23.4883C225.694 23.0089 225.213 22.3698 224.892 21.5709C224.571 20.772 224.25 19.8133 224.25 18.6949C224.25 17.5764 224.411 16.6177 224.892 15.8188C225.213 15.02 225.694 14.3808 226.335 13.9015C226.977 13.4222 227.619 13.2624 228.421 13.2624C229.223 13.2624 229.864 13.4222 230.506 13.9015C231.148 14.3808 231.629 15.02 231.95 15.8188C232.271 16.6177 232.591 17.7362 232.591 18.6949C232.591 19.8133 232.431 20.772 231.95 21.5709C231.629 22.3698 231.148 23.0089 230.506 23.4883Z" fill="#E66339"/>
            </g>
        </mask>
        <g mask="url(#mask0_1_5598)">
            <rect width="252" height="58" fill="url(#paint0_linear_1_5598)"/>
        </g>
    </g>
    <defs>
        <linearGradient id="paint0_linear_1_5598" x1="68.5" y1="71" x2="205.5" y2="-25" gradientUnits="userSpaceOnUse">
            <stop stop-color="#6156A1"/>
            <stop offset="1" stop-color="#E66339"/>
        </linearGradient>
        <clipPath id="clip0_1_5598">
            <rect width="252" height="58" fill="white"/>
        </clipPath>
        <clipPath id="clip1_1_5598">
            <rect width="252" height="58" fill="white"/>
        </clipPath>
    </defs>
</svg>