<svg xmlns="http://www.w3.org/2000/svg" width="300" height="200" viewBox="0 0 300 50" fill="none">
    <g transform="translate(0, 0)">
        <path fill-rule="evenodd" clip-rule="evenodd"
              d="M35.4589 37.4695C35.1457 37.7311 34.8226 37.9811 34.4903 38.219C34.1042 38.4953 33.7057 38.7552 33.2956 38.9977C32.9199 39.2198 32.5345 39.4273 32.1402 39.6194C29.9834 40.6701 27.5605 41.2597 25 41.2597C22.3853 41.2597 19.9143 40.645 17.7235 39.5522C17.7137 39.5473 17.7039 39.5424 17.6942 39.5376C17.6816 39.5313 17.6691 39.525 17.6566 39.5187C17.2651 39.3211 16.8826 39.1083 16.51 38.8809C16.118 38.6418 15.7369 38.3866 15.3676 38.1162C15.349 38.1026 15.3304 38.0889 15.3118 38.0752C14.9963 37.8421 14.6894 37.598 14.3917 37.3433C14.1547 37.1404 13.9235 36.9308 13.6984 36.7148C13.6879 36.7047 13.6773 36.6945 13.6668 36.6844C13.3707 36.3987 13.0854 36.1019 12.8115 35.7948C10.2392 32.9096 8.67605 29.1052 8.67605 24.9358C8.67605 15.9203 15.9845 8.61187 25 8.61187C34.0154 8.61187 41.3239 15.9203 41.3239 24.9358C41.3239 29.197 39.6911 33.0768 37.0171 35.9839C36.7389 36.2863 36.4494 36.5783 36.1493 36.859C35.925 37.0688 35.6948 37.2724 35.4589 37.4695ZM23.4574 19.0905C24.0961 19.8358 24.5364 20.6486 24.8353 21.4609C25.1342 20.6486 25.5745 19.8358 26.2132 19.0905C26.6072 18.6307 27.0381 18.2415 27.4882 17.9122C26.7115 15.4875 24.8714 14.0103 24.8714 14.0103C24.8714 14.0103 23.0094 15.5051 22.2409 17.9555C22.6698 18.2754 23.0805 18.6506 23.4574 19.0905ZM25.2758 23.1507C25.4273 24.0714 25.4367 24.9247 25.3983 25.5981C26.2483 24.7216 27.8277 22.7323 27.8277 20.0514C27.8277 19.638 27.7901 19.241 27.7235 18.862C27.4355 19.1012 27.1576 19.3711 26.8964 19.6759C25.9476 20.7832 25.4867 22.0393 25.2758 23.1507ZM17.6013 24.1086C19.6444 26.493 22.6811 26.9774 24.2288 27.0611V30.3342H10.8175C10.1787 28.657 9.82887 26.8372 9.82887 24.9358C9.82887 16.557 16.6212 9.76469 25 9.76469C33.3787 9.76469 40.171 16.557 40.171 24.9358C40.171 26.8372 39.8212 28.657 39.1825 30.3342H25.5141V27.057C27.0825 26.962 30.0575 26.4564 32.0693 24.1086C34.9129 20.7901 33.8248 16.1338 33.8248 16.1338C33.8248 16.1338 30.8913 15.9112 28.254 17.4166C27.224 14.5787 24.8714 12.8535 24.8714 12.8535C24.8714 12.8535 22.4998 14.5927 21.4764 17.4511C18.8238 15.9078 15.8458 16.1338 15.8458 16.1338C15.8458 16.1338 14.7577 20.7901 17.6013 24.1086ZM24.0132 31.491H24.2288V33.5595C20.8157 33.6857 17.7082 34.8127 15.3028 36.6036C15.0029 36.3541 14.7129 36.0933 14.4332 35.8218C16.682 33.3529 20.1174 31.7036 24.0132 31.491ZM31.0194 31.491H38.6856C38.0604 32.794 37.2545 33.9939 36.3005 35.0582C34.901 33.5444 33.0938 32.3155 31.0194 31.491ZM25.7296 31.491H25.5141V33.5595C28.991 33.6881 32.1508 34.8552 34.5743 36.7048C34.8683 36.4652 35.1533 36.2149 35.4285 35.9544C33.1829 33.412 29.6946 31.7073 25.7296 31.491ZM13.5746 34.9172C14.9549 33.4681 16.7138 32.2898 18.7234 31.491H11.3143C11.9121 32.7368 12.675 33.8883 13.5746 34.9172ZM16.3022 37.3676C16.7511 37.6823 17.2178 37.9732 17.7006 38.2387C19.6415 37.3007 21.8616 36.7318 24.2288 36.6443V34.6941C21.209 34.8171 18.4555 35.8029 16.3022 37.3676ZM25.5141 34.6941V36.6443C27.9365 36.7339 30.2049 37.3276 32.1776 38.3049C32.6562 38.0474 33.1193 37.765 33.5653 37.4594C31.3942 35.8415 28.5925 34.8195 25.5141 34.6941ZM30.7999 38.9587C29.1977 38.2727 27.4083 37.8561 25.5141 37.7788V40.0983C27.3812 40.0361 29.1628 39.6366 30.7999 38.9587ZM24.2288 37.7788C22.3849 37.854 20.6403 38.2508 19.071 38.9046C20.6685 39.5835 22.4063 39.9964 24.2288 40.0876V37.7788ZM16.5984 17.0122C16.5984 17.0122 19.0241 16.9345 21.2163 18.3299C21.0891 18.872 21.0154 19.4469 21.0154 20.0514C21.0154 22.8008 22.5415 24.9397 23.6736 26.148C22.4359 26.0245 19.9985 25.5234 18.2844 23.5231C15.8978 20.738 16.5984 17.0122 16.5984 17.0122ZM21.9151 20.0514C21.9151 19.6572 21.9492 19.278 22.0102 18.9151C22.2757 19.1409 22.5321 19.3935 22.7741 19.6759C23.723 20.7833 24.1839 22.0393 24.3948 23.1507C24.2493 24.0354 24.2348 24.8578 24.268 25.5182C23.4034 24.6045 21.9151 22.6538 21.9151 20.0514ZM26.077 26.1397C27.3373 26.0026 29.7083 25.4812 31.3862 23.5231C33.7728 20.738 33.0722 17.0122 33.0722 17.0122C33.0722 17.0122 30.6926 16.9359 28.5171 18.2904C28.65 18.844 28.7274 19.4322 28.7274 20.0514C28.7274 22.7945 27.2083 24.9298 26.077 26.1397Z"
              fill="#48A43F"/>
        <path fill-rule="evenodd" clip-rule="evenodd"
              d="M25 43.7018C35.3642 43.7018 43.7661 35.3 43.7661 24.9358C43.7661 14.5715 35.3642 6.16969 25 6.16969C14.6358 6.16969 6.23393 14.5715 6.23393 24.9358C6.23393 35.3 14.6358 43.7018 25 43.7018ZM25 42.5483C15.2729 42.5483 7.38747 34.6629 7.38747 24.9358C7.38747 15.2086 15.2729 7.32322 25 7.32322C34.7271 7.32322 42.6125 15.2086 42.6125 24.9358C42.6125 34.6629 34.7271 42.5483 25 42.5483Z"
              fill="#48A43F"/>
        <path fill-rule="evenodd" clip-rule="evenodd"
              d="M21.0154 0H28.9845V4.23214C29.9948 4.4254 30.9795 4.69077 31.933 5.0227L34.0493 1.35707L40.9508 5.34165L38.8255 9.02276C39.5914 9.68877 40.3088 10.4092 40.9716 11.1779L44.6584 9.04935L48.643 15.9508L44.9424 18.0874C45.2676 19.0348 45.5273 20.0126 45.7159 21.0156H50V28.9847H45.6913C45.4976 29.9804 45.2338 30.9511 44.9053 31.8914L48.6429 34.0493L44.6584 40.9508L40.8973 38.7794C40.241 39.5325 39.532 40.2385 38.7761 40.8917L40.9508 44.6584L34.0493 48.6429L31.8711 44.8703C30.9369 45.1922 29.973 45.4504 28.9845 45.6395V50H21.0154V45.6394C20.027 45.4503 19.0631 45.1922 18.1289 44.8703L15.9508 48.6429L9.04931 44.6583L11.224 40.8916C10.4682 40.2384 9.75918 39.5324 9.10285 38.7794L5.34172 40.9508L1.35714 34.0494L5.09492 31.8913C4.76638 30.9511 4.50259 29.9804 4.30888 28.9847H3.48342e-07L0 21.0156H4.28425C4.47288 20.0127 4.73254 19.0348 5.0578 18.0874L1.3571 15.9508L5.34168 9.04935L9.02855 11.178C9.69135 10.4092 10.4087 9.68883 11.1746 9.02283L9.04928 5.34168L15.9508 1.3571L18.0671 5.02274C19.0206 4.69083 20.0052 4.42545 21.0154 4.23219V0ZM22.1723 5.20751C20.5627 5.43617 19.015 5.85716 17.5532 6.44647L16.9715 5.43891C16.9715 5.43892 16.9715 5.4389 16.9715 5.43891L15.5274 2.93745L10.6296 5.76521L12.0804 8.27817C12.0804 8.27819 12.0804 8.27815 12.0804 8.27817L12.6623 9.28616C11.4098 10.275 10.2788 11.4109 9.2955 12.6679L8.28817 12.0863C8.28817 12.0863 8.28817 12.0863 8.28817 12.0863L5.76505 10.6296L2.93729 15.5274L5.46953 16.9894C5.46953 16.9894 5.46954 16.9894 5.46953 16.9894L6.4777 17.5715C5.89795 19.0284 5.48511 20.5698 5.2628 22.1722H4.09993C4.09993 22.1723 4.09994 22.1722 4.09993 22.1722L1.15676 22.1723L1.15676 27.8279H4.11716C4.11715 27.8278 4.11716 27.8279 4.11716 27.8279L5.28104 27.8277C5.51286 29.4223 5.93351 30.9557 6.51957 32.4044L5.51217 32.9861C5.51215 32.986 5.51218 32.9861 5.51217 32.9861L2.93738 34.4727L5.76514 39.3705L8.35698 37.8741C8.35696 37.8741 8.35699 37.8742 8.35698 37.8741L9.36503 37.292C10.3455 38.5309 11.47 39.6506 12.7133 40.6256L12.1317 41.6331C12.1316 41.6331 12.1317 41.6331 12.1317 41.6331L10.6295 44.2349L15.5274 47.0627L17.6135 43.4493C19.0575 44.0259 20.5848 44.4385 22.1723 44.6641L22.1723 48.8432H27.8278L27.8278 44.6641C29.4152 44.4386 30.9425 44.026 32.3864 43.4494L32.9684 44.4574C32.9683 44.4574 32.9684 44.4574 32.9684 44.4574L34.4728 47.0628L39.3706 44.2351L37.8684 41.6332C37.8684 41.6332 37.8684 41.6332 37.8684 41.6332L37.2866 40.6258C38.53 39.6507 39.6546 38.5311 40.635 37.2922L44.2349 39.3706L47.0627 34.4728L43.4805 32.4046C44.0667 30.9558 44.4873 29.4224 44.7192 27.8277H45.8831C45.8831 27.8277 45.8831 27.8278 45.8831 27.8277L48.8431 27.8279V22.1723H45.9003C45.9003 22.1723 45.9003 22.1724 45.9003 22.1723L44.7374 22.1722C44.5151 20.5698 44.1022 19.0282 43.5224 17.5713L44.5306 16.9892C44.5306 16.9892 44.5306 16.9892 44.5306 16.9892L47.0628 15.5274L44.235 10.6295L41.7119 12.0862C41.7119 12.0862 41.7119 12.0862 41.7119 12.0862L40.7046 12.6677C39.7212 11.4107 38.5902 10.2748 37.3377 9.28597L37.9196 8.27804C37.9196 8.27804 37.9196 8.27805 37.9196 8.27804L39.3706 5.76504L34.4727 2.93728L33.0285 5.43883C33.0284 5.43883 33.0285 5.43883 33.0285 5.43883L32.4467 6.44636C30.985 5.85709 29.4374 5.43613 27.8278 5.20749L27.8278 1.15679H22.1723L22.1723 5.20751Z"
              fill="#48A43F"/>
    </g>
    <g transform="translate(60, 10)">
        <text
                x="0"
                y="25"
                font-size="30"
                font-family="Arial, sans-serif"
                fill="#48A43F"
                font-weight="bold"
        >
            Ланиакея
        </text>
    </g>
</svg>