            <svg xmlns="http://www.w3.org/2000/svg" width="267" height="65" viewBox="0 0 267 65" fill="none">
                <g clip-path="url(#clip0)">
                    <path fill-rule="evenodd" clip-rule="evenodd" d="M262.794 22.676C262.574 22.216 262.189 21.946 261.474 21.946C260.759 21.946 260.374 22.271 260.155 22.703C259.687 23.595 259.632 26 259.632 28.325C259.632 30.649 259.687 33.054 260.155 33.946C260.374 34.378 260.759 34.702 261.474 34.702C262.189 34.702 262.574 34.405 262.794 33.946C263.013 33.54 263.068 33.001 263.096 32.46H267C266.917 34.298 266.257 35.838 265.24 36.784C264.251 37.703 263.096 38.162 261.474 38.162C259.357 38.162 258.065 37.298 257.185 36.216C255.811 34.568 255.728 32.028 255.728 28.325C255.728 24.622 255.811 22.081 257.185 20.433C258.065 19.352 259.357 18.487 261.474 18.487C263.096 18.487 264.251 18.946 265.24 19.866C266.257 20.811 266.917 22.325 267 24.163H263.096C263.068 23.622 263.013 23.082 262.794 22.676ZM249.381 28L245.615 37.946H242.069V18.703H245.972V28.649L249.821 18.703H253.285V37.946H249.381V28ZM239.295 32.298C239.295 34.513 238.965 35.676 237.976 36.676C237.151 37.514 235.859 37.946 233.907 37.946H228.244V18.703H233.907C235.859 18.703 237.151 19.136 238.003 19.946C238.938 20.839 239.295 21.838 239.295 23.946C239.295 25.325 239.048 26.379 238.223 27.189C237.976 27.433 237.701 27.649 237.316 27.838C237.673 28.027 238.003 28.27 238.223 28.514C239.048 29.352 239.295 30.406 239.295 32.298ZM233.44 22.163H232.148V26.271H233.44C234.952 26.271 235.391 25.622 235.391 24.217C235.391 22.811 234.979 22.163 233.44 22.163ZM233.385 29.514H232.148V34.487H233.385C234.952 34.487 235.391 33.757 235.391 32.001C235.391 30.244 234.897 29.514 233.385 29.514ZM220.384 30.973H218.762V37.946H214.858V18.703H220.384C224.618 18.703 225.882 21.082 225.882 24.838C225.882 28.595 224.618 30.973 220.384 30.973ZM220.411 22.163H218.762V27.514H220.411C221.896 27.514 221.979 26.055 221.979 24.838C221.979 23.622 221.896 22.163 220.411 22.163ZM203.452 18.703H212.469V22.163H207.356V26.514H211.754V29.973H207.356V34.487H212.469V37.946H203.452V18.703ZM195.592 34.702C196.307 34.702 196.692 34.405 196.912 33.946C197.132 33.54 197.187 33.001 197.214 32.46H201.118C201.035 34.298 200.376 35.838 199.358 36.784C198.369 37.703 197.214 38.162 195.592 38.162C193.475 38.162 192.183 37.298 191.304 36.216C189.929 34.568 189.847 32.028 189.847 28.325C189.847 24.622 189.929 22.081 191.304 20.433C192.183 19.352 193.475 18.487 195.592 18.487C197.214 18.487 198.369 18.946 199.358 19.866C200.376 20.811 201.035 22.325 201.118 24.163H197.214C197.187 23.622 197.132 23.082 196.912 22.676C196.692 22.216 196.307 21.946 195.592 21.946C194.878 21.946 194.493 22.271 194.273 22.703C193.805 23.595 193.75 26 193.75 28.325C193.75 30.649 193.805 33.054 194.273 33.946C194.493 34.378 194.878 34.702 195.592 34.702ZM182.041 28.244H187.759V31.703H182.041V28.244ZM161.43 20.433C162.804 22.081 162.887 24.622 162.887 28.325C162.887 32.028 162.804 34.568 161.43 36.216C160.55 37.298 159.258 38.162 157.141 38.162C155.024 38.162 153.732 37.298 152.853 36.216C151.478 34.568 151.395 32.028 151.395 28.325C151.395 24.622 151.478 22.081 152.853 20.433C153.732 19.352 155.024 18.487 157.141 18.487C159.258 18.487 160.55 19.352 161.43 20.433ZM157.141 21.946C156.427 21.946 156.041 22.271 155.822 22.703C155.354 23.595 155.299 26 155.299 28.325C155.299 30.649 155.354 33.054 155.822 33.946C156.041 34.378 156.427 34.702 157.141 34.702C157.856 34.702 158.241 34.378 158.461 33.946C158.928 33.054 158.983 30.649 158.983 28.325C158.983 26 158.928 23.595 158.461 22.703C158.241 22.271 157.856 21.946 157.141 21.946ZM136.528 22.163H133.229V37.946H129.326V22.163H126.027V18.703H136.528V22.163ZM124.929 24.163H121.026C120.998 23.622 120.943 23.082 120.724 22.676C120.504 22.216 120.119 21.946 119.404 21.946C118.689 21.946 118.304 22.271 118.085 22.703C117.617 23.595 117.562 26 117.562 28.325C117.562 30.649 117.617 33.054 118.085 33.946C118.304 34.378 118.689 34.702 119.404 34.702C120.119 34.702 120.504 34.405 120.724 33.946C120.943 33.54 120.998 33.001 121.026 32.46H124.929C124.847 34.298 124.187 35.838 123.17 36.784C122.181 37.703 121.026 38.162 119.404 38.162C117.287 38.162 115.995 37.298 115.115 36.216C113.741 34.568 113.658 32.028 113.658 28.325C113.658 24.622 113.741 22.081 115.115 20.433C115.995 19.352 117.287 18.487 119.404 18.487C121.026 18.487 122.181 18.946 123.17 19.866C124.187 20.811 124.847 22.325 124.929 24.163ZM111.215 18.703V37.946H107.311V22.163H104.617V30.217C104.617 37.082 102.253 37.946 99.229 37.946H98.047V34.487H98.377C99.724 34.487 100.851 34.081 100.851 29.865V18.703H111.215ZM95.878 36.216C94.998 37.298 93.706 38.162 91.589 38.162C89.472 38.162 88.18 37.298 87.3 36.216C85.926 34.568 85.844 32.028 85.844 28.325C85.844 24.622 85.926 22.081 87.3 20.433C88.18 19.352 89.472 18.487 91.589 18.487C93.706 18.487 94.998 19.352 95.878 20.433C97.252 22.081 97.335 24.622 97.335 28.325C97.335 32.028 97.252 34.568 95.878 36.216ZM92.909 22.703C92.689 22.271 92.304 21.946 91.589 21.946C90.875 21.946 90.49 22.271 90.27 22.703C89.802 23.595 89.747 26 89.747 28.325C89.747 30.649 89.802 33.054 90.27 33.946C90.49 34.378 90.875 34.702 91.589 34.702C92.304 34.702 92.689 34.378 92.909 33.946C93.376 33.054 93.431 30.649 93.431 28.325C93.431 26 93.376 23.595 92.909 22.703ZM79.497 27.919L77.353 34.513H75.346L73.257 27.947V37.946H69.353V18.703H72.789L76.363 28.135L79.937 18.703H83.401V37.946H79.497V27.919ZM67.019 24.163H63.115C63.087 23.622 63.033 23.082 62.813 22.676C62.593 22.216 62.208 21.946 61.493 21.946C60.778 21.946 60.394 22.271 60.174 22.703C59.706 23.595 59.651 26 59.651 28.325C59.651 30.649 59.706 33.054 60.174 33.946C60.394 34.378 60.778 34.702 61.493 34.702C62.208 34.702 62.593 34.405 62.813 33.946C63.033 33.54 63.087 33.001 63.115 32.46H67.019C66.936 34.298 66.276 35.838 65.259 36.784C64.27 37.703 63.115 38.162 61.493 38.162C59.376 38.162 58.084 37.298 57.204 36.216C55.83 34.568 55.747 32.028 55.747 28.325C55.747 24.622 55.83 22.081 57.204 20.433C58.084 19.352 59.376 18.487 61.493 18.487C63.115 18.487 64.27 18.946 65.259 19.866C66.276 20.811 66.936 22.325 67.019 24.163ZM49.454 30.439L43.997 35.965L36.167 31.696L33.556 33.823L21.601 26.71L34.913 18.842L36.086 18.149L46.044 21.822L52.509 16.788L52.495 16.853L52.583 16.784L49.454 30.439ZM7.007 24.872V0H48.13V15.523L34.739 11.655L7.007 24.872ZM27.243 53.786L33.582 47.29L41.886 38.778L40.444 52.533L30.384 65.008L8.532 41.836L0 28.172L0.238 28.397L0.094 28.166L27.243 53.786ZM17.45 53.13H7.007V41.401L8.027 43.035L17.45 53.13ZM41.648 52.779L43.025 38.331L35.017 33.835L35.999 33.03L44.113 37.56L48.13 33.374V53.13H41.365L41.535 52.918L41.648 52.779ZM149.612 24.838C149.612 28.595 148.347 30.973 144.114 30.973H142.492V37.946H138.588V18.703H144.114C148.347 18.703 149.612 21.082 149.612 24.838ZM142.492 27.514H144.141C145.625 27.514 145.708 26.055 145.708 24.838C145.708 23.622 145.625 22.163 144.141 22.163H142.492V27.514ZM172.341 28.135L175.915 18.703H179.378V37.946H175.475V27.919L173.331 34.513H171.324L169.235 27.947V37.946H165.331V18.703H168.767L172.341 28.135Z" fill="#087E81" />
                </g>
                <defs>
                    <clipPath id="clip0">
                        <rect width="267" height="65" fill="white" />
                    </clipPath>
                </defs>
            </svg>